<svg width="454" height="285" viewBox="0 0 454 285" fill="none" xmlns="http://www.w3.org/2000/svg">
<path fill-rule="evenodd" clip-rule="evenodd" d="M22.1724 203.75C20.4475 203.75 19.0491 205.149 19.0491 206.875V225.625C19.0491 227.351 20.4475 228.75 22.1724 228.75H47.1594C48.8845 228.75 50.2828 227.351 50.2828 225.625V206.875C50.2828 205.149 48.8845 203.75 47.1594 203.75H22.1724ZM25.2958 222.5V210H44.0361V222.5H25.2958Z" fill="#012C3D"/>
<path fill-rule="evenodd" clip-rule="evenodd" d="M56.5295 228.75C56.5295 227.024 57.9279 225.625 59.6529 225.625H72.1464C73.8714 225.625 75.2698 227.024 75.2698 228.75V238.125C75.2698 239.851 73.8714 241.25 72.1464 241.25H59.6529C57.9279 241.25 56.5295 239.851 56.5295 238.125V228.75ZM62.7763 231.875V235H69.023V231.875H62.7763Z" fill="#012C3D"/>
<path d="M59.6529 213.125C57.9279 213.125 56.5295 214.524 56.5295 216.25C56.5295 217.976 57.9279 219.375 59.6529 219.375H72.1464C73.8714 219.375 75.2698 217.976 75.2698 216.25C75.2698 214.524 73.8714 213.125 72.1464 213.125H59.6529Z" fill="#012C3D"/>
<path d="M56.5295 206.875C56.5295 205.149 57.9279 203.75 59.6529 203.75H72.1464C73.8714 203.75 75.2698 205.149 75.2698 206.875C75.2698 208.601 73.8714 210 72.1464 210H59.6529C57.9279 210 56.5295 208.601 56.5295 206.875Z" fill="#012C3D"/>
<path d="M22.1724 235C20.4475 235 19.0491 236.399 19.0491 238.125C19.0491 239.851 20.4475 241.25 22.1724 241.25H47.1594C48.8845 241.25 50.2828 239.851 50.2828 238.125C50.2828 236.399 48.8845 235 47.1594 235H22.1724Z" fill="#012C3D"/>
<path d="M19.0491 247.5C19.0491 245.774 20.4475 244.375 22.1724 244.375H47.1594C48.8845 244.375 50.2828 245.774 50.2828 247.5C50.2828 249.226 48.8845 250.625 47.1594 250.625H22.1724C20.4475 250.625 19.0491 249.226 19.0491 247.5Z" fill="#012C3D"/>
<path d="M22.1724 253.75C20.4475 253.75 19.0491 255.149 19.0491 256.875C19.0491 258.601 20.4475 260 22.1724 260H47.1594C48.8845 260 50.2828 258.601 50.2828 256.875C50.2828 255.149 48.8845 253.75 47.1594 253.75H22.1724Z" fill="#012C3D"/>
<path d="M19.0491 266.25C19.0491 264.524 20.4475 263.125 22.1724 263.125H47.1594C48.8845 263.125 50.2828 264.524 50.2828 266.25C50.2828 267.976 48.8845 269.375 47.1594 269.375H22.1724C20.4475 269.375 19.0491 267.976 19.0491 266.25Z" fill="#012C3D"/>
<path d="M78.3931 260C76.6681 260 75.2698 261.399 75.2698 263.125C75.2698 264.851 76.6681 266.25 78.3931 266.25H81.5165V269.375C81.5165 271.101 82.9149 272.5 84.6399 272.5C86.3649 272.5 87.7633 271.101 87.7633 269.375V266.25H90.8866C92.6117 266.25 94.01 264.851 94.01 263.125C94.01 261.399 92.6117 260 90.8866 260H87.7633V256.875C87.7633 255.149 86.3649 253.75 84.6399 253.75C82.9149 253.75 81.5165 255.149 81.5165 256.875V260H78.3931Z" fill="#012C3D"/>
<path fill-rule="evenodd" clip-rule="evenodd" d="M6.55566 194.375C6.55566 189.197 10.7508 185 15.9258 185H78.3932C83.5683 185 87.7633 189.197 87.7633 194.375V241.472C98.3588 242.988 106.504 252.105 106.504 263.125C106.504 275.206 96.7149 285 84.64 285C84.5566 285 84.4732 284.999 84.3901 284.999L15.9258 285C10.7508 285 6.55566 280.803 6.55566 275.625V194.375ZM78.3932 191.25H71.4034C71.1317 191.25 70.8612 191.285 70.5985 191.356L60.4679 194.058C59.6802 194.269 58.8687 194.375 58.0535 194.375H36.2655C35.4504 194.375 34.6387 194.269 33.8511 194.058L23.7204 191.356C23.4579 191.285 23.1873 191.25 22.9156 191.25H15.9258C14.2008 191.25 12.8024 192.649 12.8024 194.375V275.625C12.8024 277.351 14.2008 278.75 15.9258 278.75H69.3386C65.2891 274.78 62.7764 269.246 62.7764 263.125C62.7764 252.105 70.9212 242.988 81.5166 241.472V194.375C81.5166 192.649 80.1183 191.25 78.3932 191.25ZM84.64 247.5C76.0151 247.5 69.0231 254.496 69.0231 263.125C69.0231 271.754 76.0151 278.75 84.64 278.75C93.2649 278.75 100.257 271.754 100.257 263.125C100.257 254.496 93.2649 247.5 84.64 247.5Z" fill="#012C3D"/>
<path opacity="0.2" d="M131.838 206.914H272.59L281.85 15.5464H146.078L131.838 206.914Z" fill="black"/>
<path d="M127.514 206.914H271.279L280.547 15.5464H146.078L127.514 206.914Z" fill="#E6E6E6"/>
<path opacity="0.1" d="M133.615 203.36H265.251L274.111 21.9787L149.776 21.9714L133.615 203.36Z" fill="black"/>
<path d="M274.111 21.9714C272.59 81.7487 267.333 141.373 258.372 200.496H163.477C152.994 200.184 133.462 199.733 133.462 199.733C133.462 199.733 148.422 74.7665 149.776 21.9714H274.111Z" fill="#FAFAFA"/>
<path d="M237.726 36.064C237.449 43.8844 237.109 51.7024 236.707 59.5179H260.206C260.614 51.6975 260.954 43.8795 261.226 36.064H237.726ZM258.263 57.4756H238.861C239.191 51.0119 239.473 44.5555 239.706 38.1063H259.107C258.869 44.5603 258.588 51.0167 258.263 57.4756Z" fill="#E0E0E0"/>
<path d="M233.802 74.0251C233.53 81.8456 233.19 89.666 232.783 97.4864H256.275C256.683 89.6611 257.025 81.8407 257.302 74.0251H233.802ZM254.339 95.4441H234.938C235.258 88.9852 235.539 82.5263 235.782 76.0675H255.183C254.941 82.5312 254.659 88.99 254.339 95.4441Z" fill="#E0E0E0"/>
<path d="M230.409 110.721C230.138 118.537 229.798 126.355 229.39 134.175H252.897C253.3 126.355 253.64 118.537 253.916 110.721H230.409ZM250.946 132.133H231.545C231.865 125.669 232.147 119.213 232.389 112.764H251.791C251.553 119.213 251.271 125.669 250.946 132.133Z" fill="#E0E0E0"/>
<path d="M225.204 149.802C224.932 157.622 224.593 165.442 224.185 173.263H247.685C248.088 165.438 248.427 157.617 248.704 149.802H225.204ZM245.741 171.22H226.34C226.66 164.762 226.942 158.303 227.184 151.844H246.586C246.343 158.298 246.061 164.757 245.741 171.22Z" fill="#E0E0E0"/>
<path d="M158.964 49.8516H225.408C225.355 51.3052 225.299 52.7588 225.241 54.2124H158.789L158.964 49.8516Z" fill="#E6E6E6"/>
<path d="M174.077 42.8816H226.063C226.005 44.3352 225.932 45.7888 225.867 47.2424H173.866C173.939 45.7888 174.004 44.3352 174.077 42.8816Z" fill="#E6E6E6"/>
<path d="M152.87 89.0698H219.308C219.257 90.5234 219.198 91.977 219.14 93.4306H152.696C152.754 91.9916 152.819 90.5234 152.87 89.0698Z" fill="#E6E6E6"/>
<path d="M167.983 82.0781H219.977C219.912 83.5317 219.839 84.9853 219.773 86.439H167.78C167.845 84.9926 167.896 83.5317 167.983 82.0781Z" fill="#E6E6E6"/>
<path d="M148.24 162.237H214.677C214.619 163.691 214.568 165.145 214.503 166.598H148.058C148.126 165.154 148.187 163.701 148.24 162.237Z" fill="#E6E6E6"/>
<path d="M163.353 155.245H215.34C215.282 156.699 215.209 158.153 215.143 159.606H163.142C163.215 158.16 163.281 156.706 163.353 155.245Z" fill="#E6E6E6"/>
<path d="M152.543 123.753H218.98C218.922 125.207 218.871 126.66 218.805 128.114H152.361C152.429 126.67 152.489 125.216 152.543 123.753Z" fill="#E6E6E6"/>
<path d="M167.649 116.761H219.642C219.584 118.215 219.511 119.668 219.439 121.122H167.445C167.51 119.675 167.583 118.222 167.649 116.761Z" fill="#E6E6E6"/>
<path d="M178.336 25.38H247.976L247.365 23.1996C245.792 17.734 245.064 14.1146 239.968 14.1146C239.968 14.1146 222.889 13.1479 222.416 11.6725C221.844 9.9244 220.729 8.40366 219.233 7.33077C217.737 6.25788 215.937 5.68859 214.095 5.70544C212.192 5.72822 210.336 6.30488 208.756 7.36476C207.176 8.42465 205.94 9.92171 205.199 11.6725C204.587 13.1261 185.987 14.1146 185.987 14.1146C180.855 14.1146 181.219 17.7486 179.151 23.1996L178.336 25.38Z" fill="#E0E0E0"/>
<path d="M240.478 49.5318C240.45 49.9151 240.501 50.3 240.626 50.6634C240.751 51.0268 240.948 51.3613 241.206 51.6468C241.799 52.0662 242.535 52.2335 243.251 52.112C246.163 51.8721 248.762 50.215 251.099 48.4779C255.589 45.0963 259.626 41.154 263.111 36.7473C258.68 39.7321 254.137 42.5472 249.483 45.1928C248.067 46.0611 246.552 46.7565 244.969 47.2642C244.329 47.4459 243.455 47.4604 243.2 46.8499C242.887 46.1231 243.826 45.0256 243.2 44.5314C242.574 44.0372 241.249 45.1564 240.951 45.6579C240.368 46.6028 240.441 48.4489 240.478 49.5318Z" fill="#E0E0E0"/>
<path d="M235.273 87.2166C235.245 87.5999 235.295 87.9848 235.421 88.3482C235.546 88.7116 235.743 89.0461 236.001 89.3316C236.594 89.751 237.33 89.9183 238.046 89.7968C240.958 89.5497 243.557 87.8998 245.894 86.1627C250.382 82.7791 254.419 78.837 257.906 74.4321C253.47 77.4169 248.927 80.2296 244.278 82.8703C242.864 83.7439 241.348 84.4419 239.764 84.949C239.124 85.1307 238.25 85.1452 237.995 84.5274C237.682 83.8006 238.621 82.7104 237.995 82.2162C237.369 81.722 236.044 82.8413 235.746 83.3355C235.163 84.2513 235.236 86.0901 235.273 87.2166Z" fill="#E0E0E0"/>
<path d="M232.855 124.821C232.83 125.206 232.881 125.591 233.006 125.955C233.131 126.32 233.327 126.656 233.583 126.944C233.876 127.151 234.206 127.3 234.556 127.379C234.906 127.459 235.268 127.469 235.622 127.409C238.534 127.162 241.133 125.512 243.47 123.775C247.958 120.391 251.994 116.449 255.482 112.044C251.055 115.034 246.513 117.847 241.854 120.482C240.441 121.355 238.928 122.052 237.347 122.561C236.707 122.743 235.826 122.757 235.571 122.139C235.258 121.413 236.197 120.315 235.571 119.828C234.945 119.341 233.62 120.446 233.321 120.948C232.746 121.892 232.819 123.738 232.855 124.821Z" fill="#E0E0E0"/>
<path d="M355.764 192.145C356.492 193.039 357.22 194.1 356.987 195.227C356.822 195.843 356.43 196.374 355.891 196.714C355.351 197.055 354.703 197.18 354.075 197.066C353.454 196.928 352.879 196.634 352.402 196.214C351.926 195.793 351.565 195.258 351.352 194.66C351.061 193.933 350.959 193.134 350.675 192.4C349.852 190.277 347.763 188.976 345.783 187.828C345.659 190.008 346.911 192.094 348.389 193.737C349.867 195.379 351.636 196.782 352.917 198.592C354.198 200.402 354.941 202.8 354.06 204.835C353.998 205.009 353.89 205.162 353.747 205.279C353.526 205.403 353.266 205.439 353.019 205.38C350.704 205.068 349.124 202.902 348.105 200.794C347.086 198.686 346.241 196.353 344.37 194.98C345.193 197.756 347.428 199.893 348.607 202.538C349.348 204.253 349.638 206.128 349.451 207.986C349.264 209.844 348.605 211.624 347.537 213.157C347.461 213.294 347.357 213.415 347.231 213.51C347.106 213.605 346.962 213.673 346.809 213.709C346.358 213.76 346.03 213.302 345.841 212.888C343.948 208.767 345.339 203.193 342.063 200.053C341.553 201.158 341.051 202.233 340.541 203.352C340.281 204.047 339.876 204.678 339.355 205.206C339.085 205.46 338.743 205.625 338.375 205.679C338.008 205.732 337.633 205.671 337.302 205.504C336.326 204.879 336.574 203.411 337.01 202.335C338.091 199.542 339.426 196.853 341 194.304C339.901 193.788 338.816 194.914 337.993 195.83C337.171 196.746 335.656 197.553 334.914 196.557C334.696 196.229 334.591 195.838 334.615 195.445C334.615 193.526 335.933 191.869 337.331 190.546C338.728 189.223 340.316 188.046 341.247 186.374C340.199 186.69 339.085 186.718 338.022 186.454C336.996 186.098 336.173 184.928 336.566 183.925C337.806 182.524 339.176 181.244 340.658 180.102C342.325 179.579 343.956 181.112 345.215 182.035C349.176 184.91 352.725 188.311 355.764 192.145Z" fill="#EBEBEB"/>
<path d="M346.562 208.382C346.562 207.822 346.562 207.277 346.562 206.732C346.38 191.077 343.65 185.233 342.922 185.066L342.849 184.339C342.969 184.327 343.091 184.343 343.204 184.384C343.318 184.426 343.42 184.492 343.504 184.579C344.96 185.829 347.144 192.756 347.326 206.718C347.326 207.263 347.326 207.808 347.326 208.36L346.562 208.382Z" fill="#E0E0E0"/>
<path d="M346.547 216.457C346.547 215.999 346.547 209.334 346.547 206.819V205.838C346.547 190.851 348.833 183.409 350.369 182.064C350.455 181.976 350.56 181.907 350.676 181.863C350.791 181.819 350.915 181.801 351.039 181.81L350.944 182.537C350.18 182.711 347.304 188.991 347.304 205.838V206.819C347.304 209.327 347.304 215.992 347.304 216.449L346.547 216.457Z" fill="#E0E0E0"/>
<path d="M356.841 240.667H337.17L335.249 217.06H358.763L356.841 240.667Z" fill="#F0F0F0"/>
<path d="M360.285 218.274H333.531L333.05 215.134H360.772L360.285 218.274Z" fill="#FAFAFA"/>
<path d="M320.674 179.041C319.32 179.041 317.762 179.085 316.874 180.08C316.412 180.674 316.187 181.419 316.245 182.169C316.303 182.918 316.639 183.62 317.187 184.136C317.763 184.623 318.452 184.956 319.192 185.106C319.931 185.256 320.696 185.217 321.417 184.994C322.319 184.739 323.149 184.267 324.045 184.02C326.651 183.293 329.388 184.339 331.885 185.386C329.876 187.079 327.022 187.363 324.401 187.138C321.781 186.912 319.196 186.236 316.568 186.309C313.94 186.382 311.123 187.407 309.82 189.689C309.701 189.871 309.634 190.082 309.623 190.299C309.661 190.599 309.809 190.873 310.038 191.07C311.996 193.039 315.185 192.981 317.908 192.451C320.63 191.92 323.455 190.997 326.12 191.811C322.895 193.01 319.269 192.421 315.928 193.199C313.771 193.72 311.783 194.783 310.154 196.286C308.524 197.79 307.306 199.684 306.616 201.79C306.541 201.959 306.502 202.143 306.502 202.328C306.502 202.513 306.541 202.696 306.616 202.866C306.893 203.324 307.563 203.309 308.072 203.193C313.336 202.044 317.631 196.753 322.953 197.611L320.9 201.405C320.429 202.148 320.121 202.983 319.997 203.854C319.939 204.295 320.022 204.743 320.233 205.135C320.445 205.526 320.775 205.841 321.176 206.035C322.458 206.514 323.673 205.213 324.394 204.05C326.274 201.034 327.872 197.852 329.17 194.544C330.444 195.212 330.167 197.073 329.898 198.483C329.629 199.893 329.898 201.921 331.354 201.935C331.822 201.91 332.268 201.728 332.621 201.419C334.426 200.038 335.074 197.625 335.329 195.365C335.584 193.105 335.576 190.757 336.508 188.678C336.944 189.89 337.698 190.962 338.692 191.782C339.77 192.509 341.466 192.451 342.121 191.339C342.577 189.168 342.821 186.957 342.849 184.739C342.157 182.784 339.537 182.341 337.753 181.796C332.211 180.111 326.466 179.184 320.674 179.041Z" fill="#F5F5F5"/>
<path d="M355.116 204.232C355.727 205.438 356.506 206.747 357.824 207.095C358.566 207.225 359.33 207.073 359.965 206.67C360.601 206.267 361.063 205.641 361.26 204.915C361.423 204.18 361.396 203.415 361.182 202.693C360.968 201.971 360.574 201.315 360.037 200.787C359.389 200.111 358.581 199.595 357.94 198.919C356.062 196.964 355.72 194.057 355.473 191.367C357.919 192.349 359.506 194.725 360.532 197.146C361.559 199.566 362.177 202.16 363.481 204.414C364.784 206.667 366.997 208.702 369.625 208.774C369.843 208.792 370.061 208.752 370.258 208.658C370.505 208.484 370.679 208.225 370.746 207.931C371.569 205.286 370.018 202.502 368.278 200.351C366.538 198.199 364.427 196.121 363.866 193.402C366.444 195.685 367.616 199.159 369.88 201.761C371.354 203.417 373.226 204.67 375.32 205.403C377.415 206.135 379.661 206.322 381.848 205.947C382.032 205.934 382.212 205.883 382.376 205.798C382.54 205.713 382.685 205.596 382.802 205.453C383.086 204.988 382.758 204.406 382.409 203.999C378.921 199.9 372.217 198.592 370.484 193.497H374.808C375.685 193.565 376.566 193.446 377.393 193.148C377.804 192.99 378.155 192.707 378.398 192.34C378.641 191.972 378.763 191.538 378.747 191.098C378.565 189.739 376.854 189.281 375.478 189.187C371.93 188.946 368.367 189.028 364.835 189.434C364.835 187.981 366.604 187.37 367.987 186.978C369.37 186.585 371.008 185.335 370.353 184.07C370.11 183.671 369.741 183.365 369.305 183.198C367.23 182.253 364.791 182.813 362.672 183.649C360.554 184.485 358.479 185.597 356.208 185.749C357.073 184.784 357.661 183.604 357.911 182.333C358.042 181.054 357.183 179.579 355.909 179.521C353.777 180.146 351.71 180.973 349.736 181.992C348.331 183.511 349.168 186.033 349.525 187.857C350.639 193.542 352.52 199.051 355.116 204.232Z" fill="#F0F0F0"/>
<path opacity="0.2" d="M360.736 34.1599C360.736 34.407 360.736 34.6493 360.736 34.8867V53.7836H334.848L333.472 52.4753L334.848 34.1599C334.848 30.7326 336.212 27.4457 338.639 25.0222C341.067 22.5988 344.359 21.2373 347.792 21.2373C351.225 21.2373 354.517 22.5988 356.945 25.0222C359.372 27.4457 360.736 30.7326 360.736 34.1599Z" fill="black"/>
<path d="M359.36 32.8806C359.36 33.135 359.36 33.3821 359.36 33.6074V52.4171H333.472V32.8806C333.472 29.4533 334.836 26.1664 337.264 23.7429C339.691 21.3195 342.983 19.958 346.416 19.958C349.849 19.958 353.141 21.3195 355.569 23.7429C357.996 26.1664 359.36 29.4533 359.36 32.8806Z" fill="#F5F5F5"/>
<path d="M355.827 34.633C356.63 29.6961 353.272 25.0443 348.327 24.243C343.382 23.4416 338.722 26.7941 337.92 31.7309C337.117 36.6678 340.475 41.3196 345.42 42.1209C350.365 42.9223 355.024 39.5698 355.827 34.633Z" fill="#E0E0E0"/>
<path d="M345.812 42.0746C350.822 42.0746 354.883 38.0201 354.883 33.0186C354.883 28.0171 350.822 23.9626 345.812 23.9626C340.802 23.9626 336.741 28.0171 336.741 33.0186C336.741 38.0201 340.802 42.0746 345.812 42.0746Z" fill="white"/>
<path d="M346.416 33.6221C346.416 33.7658 346.374 33.9063 346.294 34.0259C346.214 34.1454 346.1 34.2385 345.967 34.2935C345.834 34.3486 345.687 34.3629 345.546 34.3349C345.405 34.3069 345.275 34.2376 345.173 34.136C345.072 34.0344 345.002 33.9048 344.974 33.7639C344.946 33.6229 344.961 33.4767 345.016 33.3439C345.071 33.2111 345.164 33.0976 345.284 33.0177C345.403 32.9379 345.544 32.8953 345.688 32.8953C345.881 32.8953 346.066 32.9718 346.203 33.1081C346.339 33.2444 346.416 33.4293 346.416 33.6221Z" fill="#E0E0E0"/>
<path d="M345.594 33.8909L342.463 30.9473L342.769 30.6202L345.608 33.2876L350.697 28.8032L350.988 29.1376L345.594 33.8909Z" fill="#E0E0E0"/>
<path d="M272 271.832C349.956 271.832 413.152 268.149 413.152 263.605C413.152 259.061 349.956 255.377 272 255.377C194.044 255.377 130.848 259.061 130.848 263.605C130.848 268.149 194.044 271.832 272 271.832Z" fill="#F5F5F5"/>
<path d="M269.401 154.722V243.639H271.716L274.628 154.722H269.401Z" fill="#F7444E"/>
<path d="M296.73 157.629V240.005H299.045L301.957 157.629H296.73Z" fill="#F7444E"/>
<path opacity="0.5" d="M296.73 157.629V240.005H299.045L301.957 157.629H296.73Z" fill="black"/>
<path d="M408.223 154.722V240.005H405.908L402.996 154.722H408.223Z" fill="#F7444E"/>
<path opacity="0.5" d="M408.223 154.722V240.005H405.908L402.996 154.722H408.223Z" fill="black"/>
<path d="M380.894 157.629V243.094H378.579L375.667 157.629H380.894Z" fill="#F7444E"/>
<path d="M424.217 152.047H251.725V155.776H424.217V152.047Z" fill="#F7444E"/>
<path d="M412.875 159.759H263.941L257.898 155.776H418.917L412.875 159.759Z" fill="#F7444E"/>
<path opacity="0.5" d="M412.875 159.759H263.941L257.898 155.776H418.917L412.875 159.759Z" fill="black"/>
<path d="M281.231 142.824H317.602V133.797H281.231V142.824Z" fill="#F7444E"/>
<path opacity="0.6" d="M281.347 142.861H317.718V133.834H281.347V142.861Z" fill="white"/>
<path opacity="0.6" d="M281.238 142.861H309.15V133.834H281.238V142.861Z" fill="white"/>
<path d="M281.413 141.676L317.602 142.802L317.565 141.887L281.391 141.414L281.413 141.676Z" fill="#F7444E"/>
<path d="M317.602 137.504L281.471 135.476V135.774L317.602 138.187V137.504Z" fill="#F7444E"/>
<path d="M317.602 134.779L281.471 135.6V135.898L317.602 135.462V134.779Z" fill="#F7444E"/>
<path d="M317.704 139.278L281.566 141.036V140.768L317.704 138.674V139.278Z" fill="#F7444E"/>
<path d="M283.764 152.207H320.135V143.18H283.764V152.207Z" fill="#F7444E"/>
<path opacity="0.6" d="M283.888 152.251H320.259V143.224H283.888V152.251Z" fill="white"/>
<path opacity="0.6" d="M311.763 143.217H283.852V152.244H311.763V143.217Z" fill="white"/>
<path d="M319.982 150.797L283.815 151.263L283.772 152.178L319.961 151.059L319.982 150.797Z" fill="#F7444E"/>
<path d="M284.005 143.297L320.143 143.326V143.624H284.005V143.297Z" fill="#F7444E"/>
<path d="M283.772 147.57L319.91 145.157V144.852L283.772 146.88V147.57Z" fill="#F7444E"/>
<path d="M320.143 144.154L284.005 144.983V145.281L320.143 144.845V144.154Z" fill="#F7444E"/>
<path d="M320.245 148.661L284.099 150.412V150.151L320.245 148.057V148.661Z" fill="#F7444E"/>
<path d="M314.552 98.8018L278.203 98.9835L278.144 107.829H314.552V98.8018Z" fill="#F7444E"/>
<path opacity="0.6" d="M278.181 107.829H314.552V98.8017H278.181V107.829Z" fill="white"/>
<path opacity="0.6" d="M306.056 98.8018H278.144V107.829H306.056V98.8018Z" fill="white"/>
<path d="M307.155 98.9834H278.202V99.8992H306.536L307.155 98.9834Z" fill="#F7444E"/>
<path d="M314.34 102.683L278.202 103.017V103.286H314.34V102.683Z" fill="#F7444E"/>
<path d="M278.202 106.862L314.34 105.103V105.365L278.202 107.458V106.862Z" fill="#F7444E"/>
<path d="M278.202 103.468L314.34 104.187V104.442L278.202 104.064V103.468Z" fill="#F7444E"/>
<path d="M314.399 131.806H278.261V133.994H314.399V131.806Z" fill="#F7444E"/>
<path opacity="0.6" d="M314.399 131.828H278.261V134.001H314.399V131.828Z" fill="white"/>
<path opacity="0.6" d="M307.06 131.69H278.261V134.001H307.06V131.69Z" fill="white"/>
<path d="M278.282 132.794L314.428 133.238L314.42 133.376L278.275 133.107L278.282 132.794Z" fill="#F7444E"/>
<path d="M278.282 132.373L314.42 132.743V132.882L278.282 132.685V132.373Z" fill="#F7444E"/>
<path d="M314.763 108.294V114.036C314.909 114.036 315.05 114.094 315.154 114.197C315.258 114.301 315.316 114.441 315.316 114.588C315.316 114.734 315.258 114.875 315.154 114.979C315.05 115.082 314.909 115.14 314.763 115.14C312.579 115.14 310.395 115.14 308.211 115.14V107.146H314.763C314.915 107.146 315.062 107.206 315.169 107.314C315.277 107.421 315.338 107.567 315.338 107.72C315.338 107.872 315.277 108.018 315.169 108.126C315.062 108.233 314.915 108.294 314.763 108.294Z" fill="#F7444E"/>
<path opacity="0.3" d="M314.763 108.294V114.036C314.909 114.036 315.05 114.094 315.154 114.197C315.258 114.301 315.316 114.441 315.316 114.588C315.316 114.734 315.258 114.875 315.154 114.979C315.05 115.082 314.909 115.14 314.763 115.14C312.579 115.14 310.395 115.14 308.211 115.14V107.146H314.763C314.915 107.146 315.062 107.206 315.169 107.314C315.277 107.421 315.338 107.567 315.338 107.72C315.338 107.872 315.277 108.018 315.169 108.126C315.062 108.233 314.915 108.294 314.763 108.294Z" fill="white"/>
<path d="M314.763 108.316H309.652V114.05H314.763V108.316Z" fill="#F7444E"/>
<path opacity="0.6" d="M314.763 108.316H309.652V114.05H314.763V108.316Z" fill="white"/>
<path d="M310.722 107.756H282.498C281.275 107.756 280.314 109.289 280.314 111.179C280.314 113.069 281.297 114.602 282.498 114.602H310.722V107.756Z" fill="#F7444E"/>
<path opacity="0.9" d="M310.722 107.756H282.498C281.275 107.756 280.314 109.289 280.314 111.179C280.314 113.069 281.297 114.602 282.498 114.602H310.722V107.756Z" fill="white"/>
<path d="M310.722 115.155C304.898 115.155 288.606 115.257 282.803 115.155C278.828 115.082 278.617 107.473 282.512 107.211C285.235 107.022 288.03 107.211 290.753 107.211H310.722C310.857 107.226 310.981 107.291 311.072 107.392C311.162 107.493 311.212 107.624 311.212 107.76C311.212 107.895 311.162 108.026 311.072 108.127C310.981 108.228 310.857 108.293 310.722 108.308H283.721C282.447 108.308 281.537 108.308 281.049 109.82C280.619 111.121 280.758 113.767 282.505 114.05C282.703 114.068 282.903 114.068 283.102 114.05H310.729C310.876 114.05 311.017 114.108 311.121 114.212C311.224 114.316 311.283 114.456 311.283 114.603C311.283 114.749 311.224 114.89 311.121 114.993C311.017 115.097 310.876 115.155 310.729 115.155H310.722Z" fill="#F7444E"/>
<g opacity="0.2">
<path d="M310.722 115.155C304.898 115.155 288.606 115.257 282.803 115.155C278.828 115.082 278.617 107.473 282.512 107.211C285.235 107.022 288.03 107.211 290.753 107.211H310.722C310.857 107.226 310.981 107.291 311.072 107.392C311.162 107.493 311.212 107.624 311.212 107.76C311.212 107.895 311.162 108.026 311.072 108.127C310.981 108.228 310.857 108.293 310.722 108.308H283.721C282.447 108.308 281.537 108.308 281.049 109.82C280.619 111.121 280.758 113.767 282.505 114.05C282.703 114.068 282.903 114.068 283.102 114.05H310.729C310.876 114.05 311.017 114.108 311.121 114.212C311.224 114.316 311.283 114.456 311.283 114.603C311.283 114.749 311.224 114.89 311.121 114.993C311.017 115.097 310.876 115.155 310.729 115.155H310.722Z" fill="white"/>
</g>
<path d="M308.684 116.063V121.376C308.819 121.376 308.948 121.43 309.044 121.525C309.14 121.621 309.193 121.75 309.193 121.885C309.193 122.02 309.14 122.149 309.044 122.245C308.948 122.34 308.819 122.394 308.684 122.394C306.653 122.394 304.621 122.394 302.59 122.394V115.046H308.684C308.819 115.046 308.948 115.1 309.044 115.195C309.14 115.29 309.193 115.42 309.193 115.555C309.193 115.69 309.14 115.819 309.044 115.914C308.948 116.01 308.819 116.063 308.684 116.063Z" fill="#F7444E"/>
<path opacity="0.3" d="M308.684 116.063V121.376C308.819 121.376 308.948 121.43 309.044 121.525C309.14 121.621 309.193 121.75 309.193 121.885C309.193 122.02 309.14 122.149 309.044 122.245C308.948 122.34 308.819 122.394 308.684 122.394C306.653 122.394 304.621 122.394 302.59 122.394V115.046H308.684C308.819 115.046 308.948 115.1 309.044 115.195C309.14 115.29 309.193 115.42 309.193 115.555C309.193 115.69 309.14 115.819 309.044 115.914C308.948 116.01 308.819 116.063 308.684 116.063Z" fill="white"/>
<path d="M308.684 116.071H303.952V121.383H308.684V116.071Z" fill="#F7444E"/>
<path opacity="0.6" d="M308.684 116.071H303.952V121.383H308.684V116.071Z" fill="white"/>
<path d="M304.942 115.562H278.807C277.678 115.562 276.761 116.979 276.761 118.731C276.761 120.482 277.678 121.9 278.807 121.9H304.942V115.562Z" fill="#F7444E"/>
<path opacity="0.9" d="M304.942 115.562H278.807C277.678 115.562 276.761 116.979 276.761 118.731C276.761 120.482 277.678 121.9 278.807 121.9H304.942V115.562Z" fill="white"/>
<path d="M304.942 122.401C299.569 122.401 284.463 122.496 279.091 122.401C275.407 122.336 275.21 115.293 278.821 115.046C281.34 114.871 283.917 115.046 286.451 115.046H304.942C305.077 115.046 305.207 115.099 305.302 115.195C305.398 115.29 305.452 115.42 305.452 115.555C305.452 115.689 305.398 115.819 305.302 115.914C305.207 116.01 305.077 116.063 304.942 116.063H279.935C278.756 116.063 277.919 116.063 277.46 117.466C277.067 118.665 277.191 121.1 278.807 121.384C278.988 121.398 279.171 121.398 279.353 121.384H304.942C305.077 121.384 305.207 121.437 305.302 121.533C305.398 121.628 305.452 121.757 305.452 121.892C305.452 122.027 305.398 122.157 305.302 122.252C305.207 122.347 305.077 122.401 304.942 122.401Z" fill="#F7444E"/>
<path d="M316.823 123.557V129.887C316.973 129.904 317.111 129.975 317.212 130.087C317.312 130.199 317.368 130.344 317.368 130.494C317.368 130.644 317.312 130.79 317.212 130.902C317.111 131.014 316.973 131.085 316.823 131.101C314.406 131.101 311.989 131.101 309.543 131.101V122.307H316.823C316.989 122.307 317.148 122.372 317.266 122.49C317.383 122.607 317.449 122.766 317.449 122.932C317.449 123.097 317.383 123.256 317.266 123.374C317.148 123.491 316.989 123.557 316.823 123.557Z" fill="#F7444E"/>
<path opacity="0.3" d="M316.823 123.557V129.887C316.973 129.904 317.111 129.975 317.212 130.087C317.312 130.199 317.368 130.344 317.368 130.494C317.368 130.644 317.312 130.79 317.212 130.902C317.111 131.014 316.973 131.085 316.823 131.101C314.406 131.101 311.989 131.101 309.543 131.101V122.307H316.823C316.989 122.307 317.148 122.372 317.266 122.49C317.383 122.607 317.449 122.766 317.449 122.932C317.449 123.097 317.383 123.256 317.266 123.374C317.148 123.491 316.989 123.557 316.823 123.557Z" fill="white"/>
<path d="M316.823 123.528H311.188V129.851H316.823V123.528Z" fill="#F7444E"/>
<path opacity="0.6" d="M316.823 123.528H311.188V129.851H316.823V123.528Z" fill="white"/>
<path d="M312.368 122.917H281.26C279.913 122.917 278.829 124.603 278.829 126.689C278.829 128.775 279.913 130.461 281.26 130.461H312.368V122.917Z" fill="#F7444E"/>
<path opacity="0.9" d="M312.368 122.917H281.26C279.913 122.917 278.829 124.603 278.829 126.689C278.829 128.775 279.913 130.461 281.26 130.461H312.368V122.917Z" fill="white"/>
<path d="M312.368 131.065C305.968 131.065 287.994 131.181 281.595 131.065C277.227 130.985 276.979 122.605 281.275 122.307C284.274 122.103 287.353 122.307 290.353 122.307H312.368C312.517 122.323 312.656 122.394 312.756 122.506C312.857 122.618 312.912 122.763 312.912 122.913C312.912 123.064 312.857 123.209 312.756 123.321C312.656 123.433 312.517 123.504 312.368 123.52H282.607C281.202 123.52 280.204 123.52 279.658 125.192C279.193 126.646 279.338 129.553 281.26 129.851C281.478 129.869 281.697 129.869 281.915 129.851H312.368C312.517 129.867 312.656 129.938 312.756 130.05C312.857 130.162 312.912 130.307 312.912 130.458C312.912 130.608 312.857 130.753 312.756 130.865C312.656 130.977 312.517 131.048 312.368 131.065Z" fill="#F7444E"/>
<g opacity="0.2">
<path d="M312.368 131.065C305.968 131.065 287.994 131.181 281.595 131.065C277.227 130.985 276.979 122.605 281.275 122.307C284.274 122.103 287.353 122.307 290.353 122.307H312.368C312.517 122.323 312.656 122.394 312.756 122.506C312.857 122.618 312.912 122.763 312.912 122.913C312.912 123.064 312.857 123.209 312.756 123.321C312.656 123.433 312.517 123.504 312.368 123.52H282.607C281.202 123.52 280.204 123.52 279.658 125.192C279.193 126.646 279.338 129.553 281.26 129.851C281.478 129.869 281.697 129.869 281.915 129.851H312.368C312.517 129.867 312.656 129.938 312.756 130.05C312.857 130.162 312.912 130.307 312.912 130.458C312.912 130.608 312.857 130.753 312.756 130.865C312.656 130.977 312.517 131.048 312.368 131.065Z" fill="black"/>
</g>
<path d="M365.359 150.056L323.076 150.245C322.797 150.251 322.519 150.197 322.262 150.087C322.005 149.977 321.774 149.813 321.586 149.606C321.398 149.4 321.256 149.155 321.17 148.889C321.084 148.623 321.057 148.342 321.089 148.065L323.331 121.071C323.388 120.483 323.659 119.937 324.092 119.535C324.526 119.133 325.091 118.904 325.683 118.891L367.965 118.702C368.245 118.696 368.522 118.749 368.78 118.86C369.037 118.97 369.267 119.134 369.456 119.34C369.644 119.547 369.786 119.792 369.871 120.057C369.957 120.323 369.985 120.605 369.952 120.882L367.71 147.876C367.653 148.463 367.383 149.01 366.949 149.412C366.516 149.813 365.95 150.043 365.359 150.056Z" fill="#263238"/>
<path d="M365.249 147.927L322.341 148.123L324.598 120.955L367.506 120.766L365.249 147.927Z" fill="#F7444E"/>
<path d="M364.667 150.056L322.385 150.245C322.105 150.252 321.826 150.199 321.569 150.09C321.311 149.98 321.08 149.816 320.891 149.609C320.703 149.402 320.561 149.157 320.476 148.891C320.391 148.624 320.364 148.342 320.397 148.065L322.64 121.071C322.696 120.484 322.967 119.937 323.4 119.535C323.834 119.133 324.4 118.904 324.991 118.891L367.273 118.702C367.553 118.696 367.831 118.75 368.088 118.86C368.345 118.97 368.576 119.134 368.764 119.341C368.952 119.547 369.094 119.792 369.18 120.058C369.265 120.324 369.293 120.605 369.261 120.882L367.018 147.876C366.962 148.463 366.691 149.01 366.258 149.412C365.824 149.814 365.258 150.043 364.667 150.056Z" fill="#F7444E"/>
<g opacity="0.7">
<path d="M364.929 147.614L322.028 147.803L324.285 120.642L367.193 120.453L364.929 147.614Z" fill="#F7444E"/>
<path opacity="0.9" d="M363 147.621L324.329 147.796C324.036 147.797 323.746 147.737 323.478 147.62C323.21 147.504 322.969 147.333 322.77 147.118C322.572 146.903 322.42 146.65 322.325 146.374C322.23 146.097 322.193 145.805 322.217 145.513L324.125 122.568C324.169 122.042 324.408 121.552 324.796 121.194C325.185 120.836 325.693 120.637 326.221 120.635L364.886 120.461C365.178 120.458 365.469 120.517 365.737 120.634C366.006 120.75 366.248 120.921 366.446 121.136C366.645 121.351 366.797 121.605 366.891 121.881C366.986 122.158 367.022 122.451 366.997 122.743L365.089 145.695C365.046 146.219 364.807 146.707 364.42 147.064C364.033 147.421 363.526 147.619 363 147.621Z" fill="white"/>
</g>
<path opacity="0.1" d="M358.101 118.724L349.86 150.049L352.677 150.034L360.831 118.709L358.101 118.724Z" fill="white"/>
<path opacity="0.1" d="M362.454 118.702L354.213 150.027L359.804 150.005L367.95 118.673L362.454 118.702Z" fill="white"/>
<path d="M351.25 149.903L365.519 150.027C365.708 151.684 364.973 152.28 364.063 152.273L311.829 152.193C311.278 152.191 310.75 151.971 310.361 151.581C309.972 151.192 309.754 150.664 309.754 150.114L351.25 149.903Z" fill="#F7444E"/>
<path opacity="0.2" d="M351.25 149.903L365.519 150.027C365.708 151.684 364.973 152.28 364.063 152.273L311.829 152.193C311.278 152.191 310.75 151.971 310.361 151.581C309.972 151.192 309.754 150.664 309.754 150.114L351.25 149.903Z" fill="white"/>
<path opacity="0.2" d="M365.519 150.027C365.708 151.684 364.973 152.28 364.063 152.273H349.576C350.762 152.273 352.277 151.124 352.277 149.932L365.519 150.027Z" fill="white"/>
<path d="M368.387 124.378C369.451 123.524 370.787 123.083 372.151 123.135C373.506 123.188 374.832 123.551 376.024 124.196C376.136 122.452 376.24 120.708 376.337 118.963C376.417 117.691 370.426 117.56 369.69 117.851C367.754 118.6 368.708 122.575 368.387 124.378Z" fill="#F7444E"/>
<path opacity="0.9" d="M368.387 124.378C369.451 123.524 370.787 123.083 372.151 123.135C373.506 123.188 374.832 123.551 376.024 124.196C376.136 122.452 376.24 120.708 376.337 118.963C376.417 117.691 370.426 117.56 369.69 117.851C367.754 118.6 368.708 122.575 368.387 124.378Z" fill="white"/>
<path d="M367.659 128.317C368.858 127.855 370.138 127.635 371.423 127.67C372.732 127.693 374.033 127.879 375.296 128.223C375.405 127.321 375.507 126.413 375.609 125.504C375.689 124.843 369.698 124.778 368.962 124.923C367.026 125.315 367.979 127.38 367.659 128.317Z" fill="#F7444E"/>
<path opacity="0.9" d="M367.659 128.317C368.858 127.855 370.138 127.635 371.423 127.67C372.732 127.693 374.033 127.879 375.296 128.223C375.405 127.321 375.507 126.413 375.609 125.504C375.689 124.843 369.698 124.778 368.962 124.923C367.026 125.315 367.979 127.38 367.659 128.317Z" fill="white"/>
<path d="M367.368 133.042C368.569 132.575 369.851 132.355 371.139 132.395C372.448 132.418 373.749 132.604 375.012 132.947C375.114 132.039 375.216 131.137 375.325 130.229C375.398 129.567 369.414 129.502 368.671 129.647C366.742 130.04 367.696 132.104 367.368 133.042Z" fill="#F7444E"/>
<path opacity="0.9" d="M367.368 133.042C368.569 132.575 369.851 132.355 371.139 132.395C372.448 132.418 373.749 132.604 375.012 132.947C375.114 132.039 375.216 131.137 375.325 130.229C375.398 129.567 369.414 129.502 368.671 129.647C366.742 130.04 367.696 132.104 367.368 133.042Z" fill="white"/>
<path d="M360.597 113.527C360.626 113.454 360.668 113.387 360.721 113.33C360.826 113.254 360.956 113.221 361.085 113.236L365.854 113.163C364.848 115.346 364.319 117.717 364.303 120.119C363.131 120.068 359.061 120.119 359.061 120.119C358.275 118.869 360.088 114.748 360.597 113.527Z" fill="#F7444E"/>
<path opacity="0.9" d="M360.597 113.527C360.626 113.454 360.668 113.387 360.721 113.33C360.826 113.254 360.956 113.221 361.085 113.236L365.854 113.163C364.848 115.346 364.319 117.717 364.303 120.119C363.131 120.068 359.061 120.119 359.061 120.119C358.275 118.869 360.088 114.748 360.597 113.527Z" fill="white"/>
<path d="M352.451 112.945C352.477 112.869 352.519 112.799 352.575 112.742C352.68 112.671 352.805 112.637 352.932 112.647L357.707 112.575C356.702 114.757 356.173 117.128 356.157 119.53C354.985 119.479 350.915 119.53 350.915 119.53C350.129 118.287 351.942 114.166 352.451 112.945Z" fill="#F7444E"/>
<path opacity="0.9" d="M352.451 112.945C352.477 112.869 352.519 112.799 352.575 112.742C352.68 112.671 352.805 112.637 352.932 112.647L357.707 112.575C356.702 114.757 356.173 117.128 356.157 119.53C354.985 119.479 350.915 119.53 350.915 119.53C350.129 118.287 351.942 114.166 352.451 112.945Z" fill="white"/>
<path d="M345.754 112.924C345.771 112.855 345.798 112.788 345.834 112.727C345.862 112.694 345.898 112.669 345.939 112.652C345.979 112.636 346.023 112.629 346.067 112.633H349.073C348.389 114.883 348.019 117.216 347.974 119.567C347.246 119.501 344.669 119.567 344.669 119.567C344.196 118.237 345.412 114.108 345.754 112.924Z" fill="#F7444E"/>
<path opacity="0.9" d="M345.754 112.924C345.771 112.855 345.798 112.788 345.834 112.727C345.862 112.694 345.898 112.669 345.939 112.652C345.979 112.636 346.023 112.629 346.067 112.633H349.073C348.389 114.883 348.019 117.216 347.974 119.567C347.246 119.501 344.669 119.567 344.669 119.567C344.196 118.237 345.412 114.108 345.754 112.924Z" fill="white"/>
<g opacity="0.2">
<path d="M324.765 119.065C324.677 120.048 324.395 121.004 323.935 121.878C323.415 122.976 322.796 124.024 322.086 125.01C325.668 125.083 328.376 125.25 329.723 125.054C331.126 123.099 331.701 120.67 331.325 118.295C329.206 118.92 326.629 118.426 324.438 118.956L324.765 119.065Z" fill="black"/>
</g>
<path d="M324.809 118.251C324.574 119.232 324.159 120.161 323.586 120.991C322.912 122.047 322.147 123.041 321.3 123.964C323.851 124.209 326.417 124.241 328.973 124.058C330.677 122.227 331.427 120.424 331.325 118.295C328.784 118.295 324.809 118.251 324.809 118.251Z" fill="#F7444E"/>
<g opacity="0.9">
<path d="M324.809 118.251C324.574 119.232 324.159 120.161 323.586 120.991C322.912 122.047 322.147 123.041 321.3 123.964C323.851 124.209 326.417 124.241 328.973 124.058C330.677 122.227 331.427 120.424 331.325 118.295C328.784 118.295 324.809 118.251 324.809 118.251Z" fill="white"/>
</g>
<g opacity="0.2">
<path d="M334.608 118.411C334.521 119.501 334.24 120.567 333.778 121.558C333.262 122.778 332.643 123.952 331.929 125.069C335.518 125.141 338.219 125.33 339.566 125.112C340.982 122.86 341.549 120.178 341.167 117.546C339.049 118.273 336.472 117.692 334.288 118.273L334.608 118.411Z" fill="black"/>
</g>
<path d="M334.608 117.502C334.381 118.586 333.967 119.621 333.385 120.562C332.718 121.735 331.956 122.85 331.106 123.898C333.653 124.168 336.219 124.202 338.772 124C340.378 122.243 341.224 119.923 341.123 117.546C338.597 117.546 334.608 117.502 334.608 117.502Z" fill="#F7444E"/>
<g opacity="0.9">
<path d="M334.608 117.502C334.381 118.586 333.967 119.621 333.385 120.562C332.718 121.735 331.956 122.85 331.106 123.898C333.653 124.168 336.219 124.202 338.772 124C340.378 122.243 341.224 119.923 341.123 117.546C338.597 117.546 334.608 117.502 334.608 117.502Z" fill="white"/>
</g>
<path d="M403.608 152.186H391.749L395.469 140.237L396.007 138.485H398.694L403.608 152.186Z" fill="#F7444E"/>
<path opacity="0.2" d="M403.608 152.186H391.749L395.469 140.237L396.007 138.485H398.694L403.608 152.186Z" fill="black"/>
<path d="M396.007 138.485L395.469 140.237L391.749 152.186L380.785 152.026L377.261 140.237L376.715 138.485H396.007Z" fill="#E0E0E0"/>
<path d="M396.008 138.485L395.469 140.237L391.749 152.186L369.232 151.859L374.029 138.485H396.008Z" fill="#F7444E"/>
<path opacity="0.8" d="M396.008 138.485L395.469 140.237L391.749 152.186L369.232 151.859L374.029 138.485H396.008Z" fill="white"/>
<path d="M396.008 138.485L395.469 140.237H373.41L374.029 138.485H396.008Z" fill="#F7444E"/>
<path d="M376.832 145.913H371.889L373.614 141.051L378.346 141.102L376.832 145.913ZM372.464 145.513H376.541L377.8 141.501L373.898 141.458L372.464 145.513Z" fill="#F7444E"/>
<path d="M382.328 145.913H377.385L379.111 141.051L383.843 141.102L382.328 145.913ZM377.96 145.513H382.037L383.289 141.501L379.395 141.458L377.96 145.513Z" fill="#F7444E"/>
<path d="M387.861 145.913H382.918L384.643 141.051L389.368 141.102L387.861 145.913ZM383.493 145.513H387.57L388.829 141.501L384.935 141.458L383.493 145.513Z" fill="#F7444E"/>
<path d="M393.394 145.913H388.48L390.205 141.051L394.93 141.102L393.394 145.913ZM389.026 145.513H393.103L394.362 141.501L390.467 141.458L389.026 145.513Z" fill="#F7444E"/>
<path d="M375.077 151.073H370.127L371.852 146.211L376.584 146.262L375.077 151.073ZM370.709 150.674H374.786L376.046 146.662L372.144 146.618L370.709 150.674Z" fill="#F7444E"/>
<path d="M380.603 151.073H375.66L377.385 146.211L382.117 146.262L380.603 151.073ZM376.235 150.674H380.312L381.564 146.662L377.669 146.618L376.235 150.674Z" fill="#F7444E"/>
<path d="M386.136 151.073H381.2L382.925 146.211L387.65 146.262L386.136 151.073ZM381.768 150.674H385.845L387.104 146.662L383.209 146.618L381.768 150.674Z" fill="#F7444E"/>
<path d="M391.668 151.073H386.725L388.451 146.211L393.175 146.262L391.668 151.073ZM387.3 150.674H391.392L392.651 146.662L388.756 146.618L387.3 150.674Z" fill="#F7444E"/>
<path d="M376.461 145.673C376.332 144.83 376.125 144 375.842 143.195C375.682 142.781 374.051 140.237 373.731 141.792C373.636 142.25 374.604 143.362 374.866 143.733C375.349 144.418 375.882 145.067 376.461 145.673Z" fill="#F7444E"/>
<path d="M372.908 144.634C372.857 144.787 372.872 145.019 373.032 145.026C373.09 145.025 373.146 145.004 373.192 144.968C374.189 144.314 374.939 143.311 376.002 142.788C376.518 142.624 376.978 142.322 377.334 141.916C377.041 141.882 376.743 141.929 376.475 142.054C375.107 142.563 373.439 143.122 372.908 144.634Z" fill="#F7444E"/>
<path d="M387.497 145.79C387.372 144.946 387.164 144.115 386.878 143.311C386.718 142.897 385.095 140.353 384.767 141.909C384.672 142.366 385.641 143.478 385.903 143.849C386.385 144.534 386.918 145.183 387.497 145.79Z" fill="#F7444E"/>
<path d="M383.944 144.779C383.893 144.932 383.944 145.164 384.068 145.172C384.126 145.17 384.183 145.15 384.228 145.114C385.226 144.459 385.976 143.456 387.038 142.933C387.552 142.766 388.012 142.465 388.371 142.061C388.077 142.023 387.779 142.071 387.512 142.199C386.143 142.679 384.476 143.238 383.944 144.779Z" fill="#F7444E"/>
<path d="M379.853 143.253C380.847 143.767 381.664 144.567 382.197 145.55C381.949 144.257 381.455 143.023 380.741 141.916C379.649 140.273 378.426 142.454 379.853 143.253Z" fill="#F7444E"/>
<path d="M390.293 143.253C391.287 143.767 392.104 144.567 392.637 145.55C392.389 144.257 391.894 143.023 391.181 141.916C390.089 140.273 388.866 142.454 390.293 143.253Z" fill="#F7444E"/>
<path d="M380.581 142.693C379.877 142.982 379.286 143.492 378.899 144.147C378.768 144.372 378.696 144.699 378.899 144.874C379.103 145.048 379.475 144.83 379.693 144.612C380.188 144.118 382.314 142.897 382.299 142.279C381.699 142.257 381.105 142.4 380.581 142.693Z" fill="#F7444E"/>
<path d="M391.792 142.694C391.088 142.982 390.497 143.492 390.111 144.147C389.987 144.372 389.907 144.7 390.111 144.874C390.315 145.048 390.679 144.83 390.897 144.612C391.392 144.118 393.518 142.897 393.503 142.279C392.906 142.259 392.314 142.402 391.792 142.694Z" fill="#F7444E"/>
<path d="M375.733 148.137C375.347 145.71 372.449 145.579 371.241 147.468C370.953 147.945 370.781 148.483 370.738 149.038C370.691 149.392 370.721 149.751 370.826 150.092C370.994 150.484 371.284 150.811 371.652 151.027C372.02 151.243 372.447 151.335 372.871 151.291C373.723 151.185 374.502 150.762 375.055 150.107C375.39 149.781 375.62 149.364 375.718 148.908C375.77 148.654 375.775 148.393 375.733 148.137ZM374.852 149.823C374.666 150.103 374.416 150.334 374.124 150.499C373.875 150.678 373.593 150.805 373.294 150.873C372.995 150.942 372.686 150.951 372.384 150.899C372.049 150.825 371.741 150.66 371.496 150.421C371.25 150.182 371.076 149.879 370.993 149.547C370.84 148.457 371.809 146.742 373.243 146.742C375.267 146.742 375.623 148.544 374.852 149.823Z" fill="#263238"/>
<path d="M277.431 132.278L295.631 187.683H255.831L248.951 129.306H273.325C274.236 129.305 275.124 129.593 275.861 130.127C276.599 130.66 277.148 131.414 277.431 132.278Z" fill="#263238"/>
<path d="M283.648 180.792H323.069C324.889 180.792 326.36 182.675 326.36 185.001V187.908C326.36 190.234 324.904 192.116 323.069 192.116H262.536L259.369 181.141L283.648 180.792Z" fill="#263238"/>
<g opacity="0.2">
<path d="M283.648 180.792H323.069C324.889 180.792 326.36 182.675 326.36 185.001V187.908C326.36 190.234 324.904 192.116 323.069 192.116H262.536L259.369 181.141L283.648 180.792Z" fill="white"/>
</g>
<path d="M252.271 132.562L257.367 177.071C257.565 178.775 258.384 180.347 259.667 181.487C260.95 182.628 262.609 183.257 264.327 183.257H291.787C292.662 183.257 293.5 183.603 294.119 184.221C294.737 184.838 295.085 185.676 295.085 186.549V188.846C295.085 189.719 294.737 190.556 294.119 191.174C293.5 191.791 292.662 192.138 291.787 192.138H258.568C256.831 192.138 255.156 191.492 253.868 190.328C252.581 189.163 251.773 187.563 251.601 185.837L246.265 131.93C246.231 131.6 246.268 131.266 246.371 130.951C246.475 130.636 246.644 130.346 246.867 130.1C247.09 129.854 247.362 129.657 247.666 129.523C247.97 129.389 248.299 129.32 248.631 129.32C249.532 129.315 250.403 129.644 251.075 130.242C251.748 130.841 252.174 131.668 252.271 132.562Z" fill="#263238"/>
<path opacity="0.3" d="M252.271 132.562L257.367 177.071C257.565 178.775 258.384 180.347 259.667 181.487C260.95 182.628 262.609 183.257 264.327 183.257H291.787C292.662 183.257 293.5 183.603 294.119 184.221C294.737 184.838 295.085 185.676 295.085 186.549V188.846C295.085 189.719 294.737 190.556 294.119 191.174C293.5 191.791 292.662 192.138 291.787 192.138H258.568C256.831 192.138 255.156 191.492 253.868 190.328C252.581 189.163 251.773 187.563 251.601 185.837L246.265 131.93C246.231 131.6 246.268 131.266 246.371 130.951C246.475 130.636 246.644 130.346 246.867 130.1C247.09 129.854 247.362 129.657 247.666 129.523C247.97 129.389 248.299 129.32 248.631 129.32C249.532 129.315 250.403 129.644 251.075 130.242C251.748 130.841 252.174 131.668 252.271 132.562Z" fill="white"/>
<path d="M262.536 245.02C262.536 245.646 262.35 246.257 262.002 246.777C261.654 247.297 261.16 247.702 260.581 247.941C260.002 248.18 259.366 248.243 258.751 248.121C258.137 247.999 257.573 247.698 257.13 247.256C256.687 246.814 256.385 246.25 256.263 245.637C256.141 245.024 256.204 244.388 256.443 243.81C256.683 243.233 257.089 242.739 257.61 242.391C258.131 242.044 258.743 241.859 259.369 241.859C260.209 241.859 261.015 242.192 261.608 242.785C262.202 243.378 262.536 244.182 262.536 245.02Z" fill="#F7444E"/>
<path d="M309.776 245.02C309.776 245.646 309.962 246.257 310.31 246.777C310.658 247.297 311.152 247.702 311.731 247.941C312.309 248.18 312.946 248.243 313.56 248.121C314.175 247.999 314.739 247.698 315.182 247.256C315.625 246.814 315.926 246.25 316.049 245.637C316.171 245.024 316.108 244.388 315.868 243.81C315.629 243.233 315.223 242.739 314.702 242.391C314.181 242.044 313.569 241.859 312.943 241.859C312.103 241.859 311.297 242.192 310.703 242.785C310.11 243.378 309.776 244.182 309.776 245.02Z" fill="#F7444E"/>
<path d="M283.073 244.01C283.073 244.635 283.258 245.247 283.606 245.766C283.954 246.286 284.449 246.692 285.028 246.931C285.606 247.17 286.243 247.233 286.857 247.111C287.472 246.989 288.036 246.688 288.479 246.246C288.922 245.803 289.223 245.24 289.346 244.627C289.468 244.013 289.405 243.378 289.165 242.8C288.926 242.222 288.52 241.729 287.999 241.381C287.478 241.034 286.866 240.848 286.24 240.848C285.4 240.848 284.594 241.181 284 241.774C283.406 242.367 283.073 243.171 283.073 244.01Z" fill="#F7444E"/>
<path d="M316.692 239.605C316.648 239.951 316.482 240.27 316.222 240.503C315.963 240.737 315.629 240.87 315.28 240.877L285.286 240.412L257.207 241.139C256.858 241.131 256.523 240.998 256.264 240.765C256.005 240.532 255.838 240.213 255.795 239.867C255.708 239.476 255.774 239.068 255.978 238.724C256.182 238.38 256.509 238.126 256.894 238.014L272.233 234.634C273.817 234.298 275.432 234.128 277.052 234.125H293.534C295.154 234.128 296.769 234.298 298.354 234.634L315.585 237.759C315.969 237.871 316.295 238.124 316.5 238.466C316.706 238.808 316.774 239.215 316.692 239.605Z" fill="#263238"/>
<g opacity="0.3">
<path d="M316.692 239.605C316.648 239.951 316.482 240.27 316.222 240.503C315.963 240.737 315.629 240.87 315.28 240.877L285.286 240.412L257.207 241.139C256.858 241.131 256.523 240.998 256.264 240.765C256.005 240.532 255.838 240.213 255.795 239.867C255.708 239.476 255.774 239.068 255.978 238.724C256.182 238.38 256.509 238.126 256.894 238.014L272.233 234.634C273.817 234.298 275.432 234.128 277.052 234.125H293.534C295.154 234.128 296.769 234.298 298.354 234.634L315.585 237.759C315.969 237.871 316.295 238.124 316.5 238.466C316.706 238.808 316.774 239.215 316.692 239.605Z" fill="white"/>
</g>
<path d="M290.382 205.3H280.183V234.125H290.382V205.3Z" fill="#263238"/>
<path d="M288.926 191.884H281.653V205.293H288.926V191.884Z" fill="#263238"/>
<path opacity="0.3" d="M281.653 195.823L288.926 197.894V191.884H281.653V195.823Z" fill="black"/>
<path d="M262.536 245.02C262.536 245.646 262.35 246.257 262.002 246.777C261.654 247.297 261.16 247.702 260.581 247.941C260.002 248.18 259.366 248.243 258.751 248.121C258.137 247.999 257.573 247.698 257.13 247.256C256.687 246.814 256.385 246.25 256.263 245.637C256.141 245.024 256.204 244.388 256.443 243.81C256.683 243.233 257.089 242.739 257.61 242.391C258.131 242.044 258.743 241.859 259.369 241.859C260.209 241.859 261.015 242.192 261.608 242.785C262.202 243.378 262.536 244.182 262.536 245.02Z" fill="#263238"/>
<path d="M309.776 245.02C309.776 245.646 309.962 246.257 310.31 246.777C310.658 247.297 311.152 247.702 311.731 247.941C312.309 248.18 312.946 248.243 313.56 248.121C314.175 247.999 314.739 247.698 315.182 247.256C315.625 246.814 315.926 246.25 316.049 245.637C316.171 245.024 316.108 244.388 315.868 243.81C315.629 243.233 315.223 242.739 314.702 242.391C314.181 242.044 313.569 241.859 312.943 241.859C312.103 241.859 311.297 242.192 310.703 242.785C310.11 243.378 309.776 244.182 309.776 245.02Z" fill="#263238"/>
<path d="M283.073 244.01C283.073 244.635 283.258 245.247 283.606 245.766C283.954 246.286 284.449 246.692 285.028 246.931C285.606 247.17 286.243 247.233 286.857 247.111C287.472 246.989 288.036 246.688 288.479 246.246C288.922 245.803 289.223 245.24 289.346 244.627C289.468 244.013 289.405 243.378 289.165 242.8C288.926 242.222 288.52 241.729 287.999 241.381C287.478 241.034 286.866 240.848 286.24 240.848C285.4 240.848 284.594 241.181 284 241.774C283.406 242.367 283.073 243.171 283.073 244.01Z" fill="#263238"/>
<path d="M158.432 139.801C158.432 139.801 152.695 147.069 153.62 159.49C154.544 171.911 179.231 164.876 179.231 164.876C179.231 164.876 189.962 149.329 196.623 147.614L190.704 141.48C186.576 141.727 183.512 137.286 158.432 139.801Z" fill="#F7444E"/>
<path d="M181.852 93.2637C183.504 97.1594 185.23 100.924 187.072 104.711C188.913 108.498 190.792 112.233 192.896 115.991L193.74 117.444C194.271 118.359 194.979 119.16 195.822 119.799C197.169 120.793 198.738 121.444 200.394 121.696C202.857 122.061 205.364 122.015 207.812 121.558C212.168 120.781 216.406 119.448 220.421 117.59L218.965 113.229L215.988 113.701C214.983 113.854 213.978 113.941 212.988 114.087C211.044 114.329 209.087 114.47 207.128 114.508C205.426 114.583 203.722 114.412 202.068 113.999C201.658 113.912 201.278 113.716 200.969 113.433C200.969 113.382 201.035 113.433 201.035 113.433L200.423 112.146C198.749 108.468 197.074 104.638 195.414 100.881C193.755 97.1231 192.044 93.2928 190.318 89.5425L181.852 93.2637Z" fill="#FFB573"/>
<path d="M225.626 116.972C226.15 116.856 226.645 116.636 227.082 116.325C228.648 114.872 227.723 112.415 226.253 110.86C226.194 110.794 224.549 109.283 224.484 109.217C222.904 107.764 222.03 109.326 220.581 110.903L217.669 114.05L219.453 117.823C221.086 117.817 222.713 117.639 224.309 117.292C224.68 117.219 225.139 117.11 225.626 116.972Z" fill="#FFB573"/>
<path d="M193.929 91.7447C197.293 96.9268 196.71 103.788 196.71 103.788L188.615 105.539C188.615 105.539 179.602 96.1491 181.248 91.5775C183.075 86.5335 190.369 86.25 193.929 91.7447Z" fill="#263238"/>
<path opacity="0.2" d="M188.615 105.539L193.762 104.427C192.544 100.873 190.904 97.476 188.877 94.3103C185.827 89.7968 183.643 88.4958 181.219 89.775C180.454 96.0401 188.615 105.539 188.615 105.539Z" fill="black"/>
<path d="M166.156 86.9041C165.326 86.9841 156.969 89.0119 159.073 96.905C167.809 127.852 162.21 125.25 158.439 139.786L190.711 141.465C190.711 141.465 188.527 119.247 189.94 115.3C192.357 108.665 192.087 103.824 189.627 97.1666C186.911 89.8186 185.863 87.8272 185.863 87.8272C182.791 87.1513 172.46 84.542 166.156 86.9041Z" fill="#263238"/>
<path opacity="0.2" d="M167.539 110.831C167.088 106.92 160.572 92.1008 161.861 90.2911C162.865 89.7605 167.423 90.3565 169.963 93.1983C175.751 106.731 167.539 110.831 167.539 110.831Z" fill="black"/>
<path d="M151.654 237.215L135.078 249.643C134.401 249.323 129.501 243.952 129.501 243.952L143.872 231.785L151.654 237.215Z" fill="#E29471"/>
<path d="M136.155 251.198C136.134 251.163 136.123 251.123 136.123 251.082C136.123 251.041 136.134 251.001 136.155 250.966C136.183 250.933 136.22 250.909 136.262 250.898C136.303 250.886 136.347 250.887 136.388 250.9C136.526 250.944 139.846 252.049 140.516 253.393C140.585 253.516 140.629 253.651 140.644 253.791C140.659 253.931 140.645 254.073 140.603 254.207C140.57 254.365 140.488 254.508 140.369 254.618C140.251 254.727 140.101 254.797 139.941 254.818C139.344 254.905 138.485 254.207 137.757 253.364C137.158 252.692 136.622 251.967 136.155 251.198ZM139.97 253.262C139.064 252.469 138.01 251.862 136.869 251.474C137.771 252.819 139.256 254.454 139.948 254.382C140.043 254.382 140.166 254.323 140.261 254.04C140.285 253.96 140.294 253.875 140.285 253.791C140.276 253.708 140.251 253.627 140.21 253.553C140.143 253.437 140.065 253.327 139.977 253.226L139.97 253.262Z" fill="#F7444E"/>
<path d="M136.155 251.06C136.158 251.024 136.171 250.988 136.191 250.958C136.211 250.927 136.239 250.903 136.272 250.886C136.359 250.835 138.252 249.432 139.679 249.657C139.879 249.697 140.07 249.775 140.24 249.889C140.41 250.002 140.556 250.148 140.669 250.319C140.798 250.443 140.877 250.61 140.89 250.788C140.904 250.966 140.851 251.143 140.742 251.285C140.123 252.063 137.335 251.772 136.279 251.285L136.206 251.234L136.155 251.06ZM139.591 250.093C138.595 250.11 137.628 250.435 136.825 251.024C138.034 251.387 140.123 251.482 140.465 251.024C140.465 250.98 140.589 250.871 140.378 250.573L140.268 250.5C140.105 250.282 139.862 250.136 139.591 250.093Z" fill="#F7444E"/>
<path d="M136.461 249.127L135.005 248.444C134.212 248.068 133.509 247.527 132.943 246.857C132.377 246.188 131.96 245.406 131.722 244.562L131.154 242.571C131.046 242.434 130.893 242.341 130.722 242.308C130.551 242.274 130.373 242.303 130.222 242.389L123.743 245.478C123.117 245.827 123.328 247.39 123.379 247.448C126.225 251.765 133.003 260.53 135.362 263.329C137.72 266.127 140.793 264.172 140.079 262.813C136.89 256.736 136.818 253.495 136.92 250.624C136.958 250.085 136.794 249.552 136.461 249.127Z" fill="#263238"/>
<path d="M153.627 159.49C153.411 161.004 153.377 162.539 153.525 164.062C154.151 172.115 159.262 198.578 160.645 208.796C160.75 209.821 160.59 210.856 160.183 211.802C159.775 212.748 159.132 213.575 158.315 214.204C153.642 218.223 145.372 223.652 136.002 236.946C136.119 242.76 136.687 243.487 141.972 245.587C141.972 245.587 168.537 225.578 172.664 219.713C178.743 211.064 178.881 174.426 179.216 164.876C179.413 159.454 179.58 152.992 175.474 149.504C173.188 147.541 155.17 144.634 153.627 159.49Z" fill="#F7444E"/>
<path d="M253.611 219.015L261.022 238.392C260.527 238.937 254.739 243.872 253.953 242.026C251.536 236.451 240.791 218.216 240.791 218.216L253.611 219.015Z" fill="#E29471"/>
<path d="M262.056 237.505C262.019 237.526 261.978 237.537 261.936 237.537C261.893 237.537 261.852 237.526 261.815 237.505C261.787 237.473 261.766 237.434 261.756 237.393C261.746 237.351 261.746 237.307 261.757 237.265C261.815 237.127 263.017 233.849 264.385 233.224C264.51 233.159 264.647 233.121 264.787 233.111C264.927 233.101 265.068 233.12 265.201 233.166C265.358 233.202 265.499 233.287 265.605 233.409C265.711 233.53 265.776 233.682 265.79 233.842C265.863 234.438 265.135 235.252 264.269 235.964C263.581 236.547 262.84 237.062 262.056 237.505ZM264.24 233.769C263.426 234.65 262.795 235.682 262.383 236.808C263.752 235.943 265.441 234.511 265.39 233.82C265.39 233.733 265.332 233.602 265.055 233.501C264.975 233.474 264.891 233.464 264.807 233.47C264.724 233.476 264.642 233.499 264.567 233.537C264.446 233.601 264.332 233.676 264.225 233.762L264.24 233.769Z" fill="#F7444E"/>
<path d="M261.917 237.505C261.88 237.502 261.844 237.489 261.813 237.467C261.782 237.446 261.758 237.416 261.742 237.382C261.691 237.294 260.359 235.361 260.621 233.944C260.666 233.745 260.751 233.557 260.87 233.391C260.988 233.225 261.139 233.084 261.313 232.977C261.441 232.853 261.61 232.779 261.789 232.771C261.967 232.763 262.143 232.821 262.281 232.934C263.009 233.573 262.66 236.35 262.157 237.389L262.106 237.462L261.917 237.505ZM261.08 234.031C261.063 235.024 261.358 235.998 261.924 236.815C262.325 235.63 262.485 233.544 262.012 233.181C261.968 233.181 261.859 233.057 261.553 233.253L261.48 233.362C261.264 233.524 261.12 233.764 261.08 234.031Z" fill="#F7444E"/>
<path d="M260.934 236.938L253.108 240.071C252.947 240.134 252.813 240.253 252.731 240.407C252.65 240.56 252.626 240.737 252.664 240.907L253.727 247.993C253.88 248.72 255.438 248.945 255.511 248.916C260.483 247.462 270.857 243.545 274.228 242.12C277.598 240.696 276.615 237.178 275.108 237.462C268.353 238.726 265.229 237.854 262.507 236.916C262 236.72 261.436 236.728 260.934 236.938Z" fill="#263238"/>
<path d="M210.12 186.84C212.013 188.155 213.804 189.42 215.427 190.605C230.089 201.332 238.439 220.723 244.387 231.306C249.796 233.944 257.316 228.704 259.602 227.09C259.602 227.09 243.586 193.17 238.221 185.793C225.219 168.016 212.297 156.358 192.357 145.201C189.759 143.742 186.817 143.001 183.837 143.056C180.856 143.111 177.944 143.959 175.402 145.514C173.357 146.695 171.463 148.117 169.76 149.751C169.032 150.536 167.707 155.035 173.836 161.155C179.333 166.649 197.212 177.929 210.091 186.862" fill="#F7444E"/>
<path opacity="0.1" d="M179.238 164.876C177.957 162.601 179.828 154.911 179.828 154.911C179.828 154.911 204.828 179.056 206.036 183.983L184.56 169.447L179.238 164.876Z" fill="black"/>
<path d="M229.514 211.115C229.454 211.114 229.395 211.1 229.342 211.072C229.289 211.044 229.243 211.004 229.208 210.955C228.48 209.807 227.709 208.695 226.966 207.648C226.938 207.609 226.919 207.565 226.908 207.518C226.897 207.471 226.896 207.423 226.904 207.376C226.912 207.328 226.93 207.283 226.955 207.243C226.981 207.202 227.014 207.167 227.053 207.139C227.093 207.112 227.137 207.092 227.184 207.081C227.231 207.071 227.279 207.069 227.326 207.078C227.374 207.086 227.419 207.103 227.459 207.128C227.5 207.154 227.535 207.187 227.563 207.226C228.291 208.288 229.07 209.407 229.82 210.555C229.847 210.595 229.865 210.64 229.874 210.687C229.883 210.734 229.882 210.782 229.872 210.829C229.862 210.876 229.842 210.92 229.815 210.959C229.787 210.999 229.751 211.032 229.711 211.057C229.653 211.098 229.584 211.118 229.514 211.115Z" fill="#F7444E"/>
<path d="M224.877 204.581C224.821 204.582 224.765 204.57 224.715 204.546C224.664 204.522 224.62 204.487 224.585 204.443C221.266 200.042 217.345 196.128 212.937 192.814C211.416 191.702 209.683 190.474 207.638 189.056C207.564 188.999 207.515 188.916 207.501 188.824C207.487 188.732 207.508 188.638 207.562 188.562C207.615 188.485 207.696 188.432 207.787 188.413C207.878 188.394 207.973 188.411 208.053 188.46C210.105 189.914 211.838 191.113 213.367 192.233C217.823 195.574 221.788 199.523 225.146 203.963C225.191 204.016 225.221 204.08 225.23 204.149C225.239 204.218 225.228 204.288 225.197 204.35C225.167 204.413 225.119 204.465 225.06 204.501C225 204.537 224.932 204.555 224.862 204.552L224.877 204.581Z" fill="#F7444E"/>
<path d="M177.848 217.867H177.739C177.647 217.837 177.57 217.772 177.525 217.687C177.48 217.601 177.471 217.502 177.498 217.409C177.709 216.762 177.906 216.043 178.103 215.28C178.114 215.233 178.135 215.19 178.164 215.152C178.193 215.113 178.229 215.081 178.27 215.057C178.311 215.032 178.357 215.017 178.405 215.01C178.452 215.003 178.5 215.006 178.547 215.018C178.593 215.029 178.636 215.049 178.674 215.077C178.713 215.105 178.745 215.141 178.769 215.181C178.794 215.222 178.81 215.267 178.817 215.314C178.823 215.361 178.821 215.408 178.809 215.454C178.612 216.232 178.408 216.966 178.197 217.635C178.169 217.704 178.121 217.763 178.059 217.805C177.996 217.846 177.923 217.868 177.848 217.867Z" fill="#F7444E"/>
<path d="M164.467 232.992C164.413 232.992 164.36 232.981 164.31 232.958C164.261 232.936 164.218 232.902 164.183 232.861C164.123 232.785 164.094 232.689 164.103 232.592C164.113 232.496 164.16 232.407 164.234 232.345C170.408 227.221 174.201 223.667 175.526 221.792C175.795 221.419 176.038 221.028 176.254 220.621C176.3 220.537 176.378 220.473 176.47 220.445C176.562 220.416 176.662 220.425 176.749 220.469C176.833 220.514 176.896 220.59 176.925 220.681C176.954 220.772 176.945 220.871 176.901 220.956C176.688 221.391 176.445 221.811 176.173 222.213C174.819 224.139 170.976 227.737 164.758 232.904C164.719 232.939 164.672 232.964 164.622 232.979C164.572 232.994 164.519 232.999 164.467 232.992Z" fill="#F7444E"/>
<path d="M175.307 79.7597C175.875 82.0927 178.001 83.6917 180.046 84.9491C181.641 85.923 183.395 86.8533 185.259 86.7879C185.995 86.7265 186.712 86.5162 187.364 86.1699C188.017 85.8237 188.592 85.3486 189.055 84.7735C189.518 84.1984 189.859 83.5354 190.057 82.8247C190.256 82.114 190.307 81.3704 190.209 80.6391C190.482 81.0348 190.835 81.3687 191.246 81.6191C191.657 81.8695 192.116 82.0308 192.593 82.0925C193.07 82.1542 193.555 82.1149 194.016 81.9772C194.477 81.8395 194.904 81.6065 195.269 81.2933C196.652 79.9559 196.616 77.7464 196.266 75.8568C195.118 69.8358 191.99 64.3697 187.377 60.325C186.314 61.7131 184.203 61.4515 183.242 61.1971C182.901 61.1167 182.571 60.9946 182.259 60.8337C181.314 60.6529 180.336 60.783 179.471 61.2044C178.124 62.956 177.637 65.2382 177.193 67.4258C176.649 70.1005 176.105 72.7775 175.562 75.457C175.174 76.8572 175.087 78.3236 175.307 79.7597Z" fill="#263238"/>
<path d="M173.72 75.4861C173.866 79.3527 173.72 84.9345 170.721 87.0713C170.721 87.0713 170.262 90.9379 180.279 96.7378C184.975 91.8319 182.463 88.9029 182.463 88.9029C178.401 87.2458 178.823 85.5523 179.966 82.7396L173.72 75.4861Z" fill="#FFB573"/>
<path opacity="0.2" d="M176.283 78.4077L179.923 82.7685C179.634 83.4201 179.405 84.0963 179.238 84.7891C177.659 84.3094 175.344 82.5505 175.271 80.7553C175.402 79.8996 175.751 79.0915 176.283 78.4077Z" fill="black"/>
<path d="M169.825 68.2689C170.553 74.6938 170.728 77.4266 174.193 80.5592C179.362 85.2834 187.108 82.9721 188.316 76.46C189.394 70.5947 188.011 61.0372 181.553 58.8423C180.13 58.3403 178.602 58.2108 177.115 58.4661C175.628 58.7214 174.231 59.353 173.058 60.3006C171.884 61.2482 170.974 62.4801 170.413 63.8789C169.852 65.2777 169.66 66.7966 169.854 68.2907L169.825 68.2689Z" fill="#FFB573"/>
<path d="M183.497 76.2273C183.497 76.7651 183.759 77.2012 184.109 77.2158C184.458 77.2303 184.749 76.7869 184.764 76.2564C184.778 75.7258 184.502 75.2752 184.152 75.2679C183.803 75.2606 183.497 75.6895 183.497 76.2273Z" fill="#263238"/>
<path d="M180.199 69.4173C180.199 69.9406 180.534 70.3549 180.876 70.3403C181.218 70.3258 181.473 69.8752 181.451 69.3519C181.43 68.8286 181.116 68.4143 180.782 68.4288C180.447 68.4434 180.206 68.9158 180.199 69.4173Z" fill="#263238"/>
<path d="M186.14 69.1192C186.14 69.6498 186.474 70.0568 186.809 70.0423C187.144 70.0277 187.414 69.5771 187.392 69.0538C187.37 68.5305 187.057 68.1162 186.715 68.138C186.373 68.1598 186.096 68.5959 186.14 69.1192Z" fill="#263238"/>
<path d="M186.569 68.1744L187.807 67.7456C187.807 67.7456 187.217 68.7704 186.569 68.1744Z" fill="#263238"/>
<path d="M184.356 70.1658C184.894 71.3378 185.587 72.4329 186.416 73.4219C186.155 73.6247 185.854 73.7692 185.533 73.8457C185.211 73.9222 184.877 73.9289 184.553 73.8652L184.356 70.1658Z" fill="#ED893E"/>
<path d="M178.27 66.9825C178.323 67.0193 178.387 67.0391 178.452 67.0391C178.517 67.0391 178.58 67.0193 178.634 66.9825C179.046 66.6939 179.514 66.4939 180.008 66.395C180.501 66.2962 181.01 66.3007 181.502 66.4083C181.582 66.4257 181.666 66.4112 181.735 66.3677C181.805 66.3242 181.854 66.2553 181.874 66.1757C181.883 66.1366 181.885 66.0959 181.879 66.056C181.873 66.0161 181.859 65.9779 181.838 65.9434C181.817 65.9089 181.79 65.8789 181.757 65.8552C181.724 65.8315 181.687 65.8144 181.648 65.805C181.058 65.671 180.445 65.6666 179.853 65.7921C179.261 65.9176 178.704 66.17 178.219 66.5318C178.163 66.589 178.131 66.666 178.131 66.7462C178.131 66.8265 178.163 66.9035 178.219 66.9607L178.27 66.9825Z" fill="#263238"/>
<path d="M187.778 66.292C187.834 66.2975 187.89 66.2884 187.941 66.2654C187.992 66.2424 188.036 66.2065 188.069 66.1612C188.093 66.1288 188.11 66.092 188.12 66.0528C188.13 66.0137 188.132 65.973 188.126 65.9331C188.12 65.8933 188.106 65.855 188.085 65.8205C188.064 65.7861 188.036 65.7561 188.003 65.7324C187.614 65.4216 187.153 65.2124 186.663 65.1236C186.172 65.0348 185.667 65.0692 185.193 65.2236C185.156 65.235 185.122 65.2538 185.093 65.279C185.063 65.3041 185.039 65.335 185.022 65.3697C185.005 65.4044 184.995 65.4422 184.993 65.4809C184.992 65.5195 184.998 65.5581 185.011 65.5943C185.024 65.6317 185.045 65.6662 185.071 65.6958C185.098 65.7253 185.13 65.7492 185.166 65.7661C185.202 65.783 185.241 65.7926 185.281 65.7943C185.32 65.796 185.36 65.7898 185.397 65.776C185.77 65.6727 186.162 65.6583 186.541 65.734C186.921 65.8098 187.277 65.9735 187.581 66.2121C187.638 66.2562 187.706 66.2838 187.778 66.292Z" fill="#263238"/>
<path d="M180.621 68.5232L181.866 68.0872C181.866 68.0872 181.277 69.0465 180.621 68.5232Z" fill="#263238"/>
<path d="M188.819 61.7784C188.761 61.8583 186.3 62.9485 183.242 61.1606C182.929 60.9789 182.565 60.9498 182.267 60.7899C181.319 60.6086 180.339 60.7386 179.471 61.1606C179.253 61.2841 176.639 62.3453 176.312 66.975C175.78 74.4175 172.41 72.5714 171.944 72.4115C170.808 71.9972 170.204 71.1033 169.032 71.2559C168.82 71.2922 168.603 71.2922 168.391 71.2559C169.119 73.3927 169.898 75.4278 170.83 75.8856C177.622 79.1635 175.613 84.9707 173.815 85.8937C172.526 86.5624 167.117 87.093 163.128 82.6813C161.905 83.7933 159.917 83.5316 158.425 82.7612C157.287 82.1569 156.408 81.1602 155.951 79.9569C155.494 78.7535 155.491 77.4254 155.942 76.22C156.804 73.8248 158.382 71.7519 160.463 70.282C161.919 69.2863 163.601 68.5595 164.649 67.1495C164.952 66.7363 165.197 66.2839 165.377 65.8049C165.661 65.0781 166.003 64.3149 166.338 63.5808C166.384 63.4682 166.418 63.3513 166.44 63.232C166.972 61.5906 167.908 60.1087 169.163 58.922C171.027 57.105 175.074 55.695 178.416 55.6151C182.26 55.4843 187.305 58.2316 188.819 61.7784Z" fill="#263238"/>
<path d="M166.01 66.8151C166.061 66.2845 166.083 65.8267 166.091 65.6377C166.039 66.0281 166.012 66.4213 166.01 66.8151Z" fill="#263238"/>
<path d="M168.325 73.32C168.791 74.4528 169.686 75.3564 170.815 75.8348C172.329 76.4453 173.276 75.108 172.999 73.6108C172.752 72.2371 171.681 70.2602 170.087 70.2747C169.811 70.285 169.541 70.3497 169.29 70.4651C169.039 70.5804 168.814 70.7442 168.627 70.9469C168.441 71.1496 168.296 71.3873 168.202 71.6462C168.107 71.905 168.065 72.18 168.078 72.4552C168.093 72.7586 168.178 73.0545 168.325 73.32Z" fill="#FFB573"/>
<path d="M187.981 85.7629C189.838 85.4286 191.694 84.6582 192.706 83.081C195.618 78.5458 190.762 66.8152 184.88 60.7463L184.64 61.0516C190.464 67.0259 195.261 78.4949 192.422 82.9357C190.464 85.981 184.953 85.8429 183.177 85.5085L183.111 85.8647C184.73 86.0909 186.374 86.0565 187.981 85.7629Z" fill="#263238"/>
<path d="M166.243 67.5057L166.6 67.4403C166.156 65.0345 166.993 62.3962 168.944 60.0051C171.055 57.4249 174.12 55.6442 176.566 55.6442C179.376 55.5934 183.41 56.6036 185.637 58.9439L185.899 58.6968C183.599 56.2693 179.449 55.23 176.559 55.2808C174.011 55.3244 170.837 57.1415 168.668 59.7943C166.636 62.2436 165.777 64.9909 166.243 67.5057Z" fill="#263238"/>
<path d="M155.709 79.2219C157.538 80.7655 159.485 82.1628 161.533 83.401C163.402 84.6663 165.571 85.4183 167.823 85.5814C168.348 85.598 168.872 85.5591 169.388 85.4651C170.257 85.3363 171.088 85.0232 171.825 84.5468C172.562 84.0704 173.188 83.4417 173.662 82.7032C173.971 82.1563 174.169 81.5533 174.243 80.9294C174.316 80.3054 174.265 79.6731 174.091 79.0692C173.965 78.5669 173.736 78.096 173.419 77.6859C173.102 77.2757 172.704 76.9351 172.249 76.6853L172.089 76.9978C172.501 77.2289 172.861 77.5415 173.148 77.9164C173.435 78.2913 173.642 78.7207 173.756 79.1782C173.917 79.7364 173.964 80.3209 173.895 80.8975C173.827 81.4741 173.643 82.0312 173.356 82.5361C172.76 83.4231 171.944 84.1401 170.986 84.6166C170.029 85.0932 168.964 85.313 167.896 85.2543C165.707 85.093 163.598 84.3612 161.781 83.1321C159.682 81.8719 157.688 80.4452 155.818 78.8657L155.709 79.2219Z" fill="#263238"/>
<path d="M160.179 92.1662C160.82 96.9704 166.149 117.546 167.234 119.894C167.386 120.214 167.539 120.541 167.721 120.868C167.903 121.195 168.078 121.529 168.304 121.878L168.639 122.416C168.799 122.641 168.959 122.881 169.126 123.077C169.443 123.471 169.783 123.845 170.146 124.196C171.365 125.307 172.763 126.207 174.281 126.857C176.735 127.913 179.313 128.658 181.954 129.073C186.807 129.874 191.736 130.118 196.645 129.8L196.9 124.713L193.573 123.986C192.459 123.739 191.352 123.455 190.253 123.201C188.069 122.656 185.885 122.081 183.832 121.391C181.881 120.802 178.772 119.937 176.989 118.978C176.376 118.636 175.825 118.193 175.358 117.67C175.308 117.606 175.264 117.538 175.227 117.466C175.224 117.447 175.224 117.427 175.227 117.408L175.118 117.197C175.03 117.023 174.95 116.841 174.878 116.66C174.805 116.478 169.425 94.6446 168.69 90.2039L160.179 92.1662Z" fill="#FFB573"/>
<path d="M196.011 125.156C197.049 123.853 198.237 122.678 199.55 121.653C200.14 121.17 200.849 120.854 201.603 120.737C203.961 120.373 206.451 120.01 206.538 124.334C206.538 124.443 207.092 126.275 207.099 126.377C207.303 128.753 205.017 129.117 202.636 129.32L196.281 129.756L196.011 125.156Z" fill="#FFB573"/>
<path d="M172.351 92.1225C174.594 99.4269 171.893 99.3396 172.162 103.795L163.215 106.019C163.215 106.019 158.301 101.891 157.558 96.665C157.397 95.3658 157.544 94.0469 157.989 92.8153C158.433 91.5837 159.163 90.474 160.117 89.5763C161.071 88.6786 162.224 88.0182 163.482 87.6486C164.74 87.279 166.068 87.2107 167.357 87.4491C168.554 87.6609 169.663 88.2154 170.55 89.0451C171.436 89.8749 172.062 90.944 172.351 92.1225Z" fill="#263238"/>
<path d="M170.846 101.884L168.113 102.501L168.291 103.288L171.025 102.671L170.846 101.884Z" fill="#F7444E"/>
<path d="M166.576 102.953L163.704 103.911L163.96 104.676L166.832 103.718L166.576 102.953Z" fill="#F7444E"/>
<path d="M197.25 102.676L194.791 103.218L194.948 103.928L197.407 103.385L197.25 102.676Z" fill="#F7444E"/>
<path d="M224.877 114.581C223.927 115.678 223.389 117.071 223.356 118.52C223.323 119.97 223.796 121.385 224.695 122.525L224.877 122.757V124.022H184.21V113.12H224.877V114.581Z" fill="#F7444E"/>
<path opacity="0.1" d="M224.877 114.581C223.927 115.678 223.389 117.071 223.356 118.52C223.323 119.97 223.796 121.385 224.695 122.525L224.877 122.757V124.022H207.048V113.12H224.877V114.581Z" fill="black"/>
<path d="M224.68 122.525L224.862 122.757H208.977V114.581H224.877C223.927 115.678 223.389 117.071 223.356 118.52C223.323 119.97 223.796 121.386 224.695 122.525H224.68Z" fill="#263238"/>
<path opacity="0.9" d="M224.68 122.525L224.862 122.757H208.977V114.581H224.877C223.927 115.678 223.389 117.071 223.356 118.52C223.323 119.97 223.796 121.386 224.695 122.525H224.68Z" fill="white"/>
<path d="M205.614 118.854C205.614 119.286 205.486 119.707 205.246 120.066C205.006 120.424 204.664 120.704 204.265 120.869C203.866 121.034 203.427 121.077 203.004 120.993C202.58 120.909 202.191 120.701 201.885 120.396C201.58 120.091 201.372 119.703 201.288 119.28C201.203 118.857 201.247 118.418 201.412 118.02C201.577 117.622 201.857 117.281 202.216 117.042C202.575 116.802 202.998 116.674 203.43 116.674C204.009 116.674 204.564 116.904 204.974 117.313C205.384 117.722 205.614 118.276 205.614 118.854Z" fill="white"/>
<path d="M205.119 118.854C205.119 119.192 205.018 119.523 204.83 119.803C204.642 120.084 204.375 120.303 204.063 120.432C203.75 120.562 203.406 120.596 203.074 120.53C202.742 120.464 202.437 120.301 202.198 120.062C201.959 119.823 201.796 119.519 201.73 119.188C201.664 118.856 201.698 118.513 201.827 118.201C201.957 117.889 202.176 117.622 202.457 117.434C202.739 117.247 203.069 117.146 203.408 117.146C203.862 117.146 204.297 117.326 204.618 117.647C204.938 117.967 205.119 118.401 205.119 118.854Z" fill="#263238"/>
<path d="M194.796 115.526H185.31V121.565H194.796V115.526Z" fill="white"/>
<path d="M199.324 115.526H195.24V121.565H199.324V115.526Z" fill="white"/>
<path d="M208.977 121.74V121.013C209.287 121.057 209.602 121.034 209.902 120.946C210.203 120.858 210.48 120.706 210.716 120.501C210.953 120.297 211.142 120.044 211.272 119.76C211.402 119.475 211.469 119.167 211.469 118.854C211.469 118.542 211.402 118.233 211.272 117.949C211.142 117.665 210.953 117.412 210.716 117.208C210.48 117.003 210.203 116.851 209.902 116.763C209.602 116.675 209.287 116.652 208.977 116.696V115.969C209.386 115.919 209.802 115.956 210.196 116.078C210.59 116.2 210.953 116.404 211.262 116.677C211.571 116.95 211.819 117.285 211.988 117.66C212.157 118.036 212.245 118.443 212.245 118.854C212.245 119.266 212.157 119.673 211.988 120.049C211.819 120.424 211.571 120.759 211.262 121.032C210.953 121.305 210.59 121.509 210.196 121.631C209.802 121.753 209.386 121.79 208.977 121.74Z" fill="#263238"/>
<path d="M223.544 116.965H208.977V117.328H223.544V116.965Z" fill="white"/>
<path d="M223.544 117.394H208.977V117.757H223.544V117.394Z" fill="white"/>
<path d="M223.544 117.815H208.977V118.179H223.544V117.815Z" fill="white"/>
<path d="M223.544 118.244H208.977V118.607H223.544V118.244Z" fill="white"/>
<path d="M223.544 118.673H208.977V119.036H223.544V118.673Z" fill="white"/>
<path d="M223.544 119.102H208.977V119.465H223.544V119.102Z" fill="white"/>
<path d="M223.544 119.53H208.977V119.894H223.544V119.53Z" fill="white"/>
<path d="M223.544 119.959H208.977V120.323H223.544V119.959Z" fill="white"/>
<path d="M223.544 120.381H208.977V120.744H223.544V120.381Z" fill="white"/>
<path d="M229.31 103.483C228.361 104.58 227.823 105.972 227.79 107.422C227.757 108.871 228.23 110.287 229.128 111.427L229.31 111.659V112.924H188.644V101.985H229.31V103.483Z" fill="#F7444E"/>
<path opacity="0.1" d="M229.31 103.483C228.361 104.58 227.823 105.972 227.79 107.422C227.757 108.871 228.23 110.287 229.128 111.427L229.31 111.659V112.924H211.481V101.985H229.31V103.483Z" fill="black"/>
<path d="M229.128 111.426L229.31 111.659H213.411V103.482H229.31C228.361 104.579 227.823 105.972 227.79 107.422C227.757 108.871 228.23 110.287 229.128 111.426Z" fill="#263238"/>
<path opacity="0.9" d="M229.128 111.426L229.31 111.659H213.411V103.482H229.31C228.361 104.579 227.823 105.972 227.79 107.422C227.757 108.871 228.23 110.287 229.128 111.426Z" fill="white"/>
<path d="M210.047 107.756C210.047 108.187 209.919 108.609 209.679 108.967C209.439 109.326 209.098 109.606 208.699 109.771C208.3 109.936 207.861 109.979 207.437 109.895C207.013 109.81 206.624 109.603 206.319 109.298C206.013 108.993 205.805 108.604 205.721 108.181C205.637 107.759 205.68 107.32 205.845 106.922C206.011 106.523 206.291 106.183 206.65 105.943C207.009 105.704 207.431 105.576 207.863 105.576C208.442 105.576 208.998 105.805 209.408 106.214C209.817 106.623 210.047 107.178 210.047 107.756Z" fill="white"/>
<path d="M209.552 107.756C209.552 108.094 209.452 108.424 209.264 108.705C209.076 108.986 208.809 109.205 208.496 109.334C208.184 109.463 207.84 109.497 207.508 109.431C207.176 109.365 206.871 109.203 206.632 108.964C206.392 108.725 206.23 108.421 206.163 108.089C206.097 107.758 206.131 107.415 206.261 107.102C206.39 106.79 206.61 106.524 206.891 106.336C207.172 106.148 207.503 106.048 207.841 106.048C208.295 106.048 208.73 106.228 209.051 106.548C209.372 106.869 209.552 107.303 209.552 107.756Z" fill="#263238"/>
<path d="M199.229 104.42H189.743V110.46H199.229V104.42Z" fill="white"/>
<path d="M203.757 104.42H199.673V110.46H203.757V104.42Z" fill="white"/>
<path d="M213.411 110.641V109.915C213.931 109.841 214.408 109.581 214.752 109.185C215.097 108.788 215.287 108.281 215.287 107.756C215.287 107.231 215.097 106.724 214.752 106.327C214.408 105.931 213.931 105.671 213.411 105.597V104.871C214.116 104.957 214.765 105.299 215.236 105.83C215.707 106.362 215.967 107.047 215.967 107.756C215.967 108.466 215.707 109.151 215.236 109.682C214.765 110.213 214.116 110.555 213.411 110.641Z" fill="#263238"/>
<path d="M227.978 105.866H213.411V106.23H227.978V105.866Z" fill="white"/>
<path d="M227.978 106.295H213.411V106.659H227.978V106.295Z" fill="white"/>
<path d="M227.978 106.717H213.411V107.08H227.978V106.717Z" fill="white"/>
<path d="M227.978 107.146H213.411V107.509H227.978V107.146Z" fill="white"/>
<path d="M227.978 107.574H213.411V107.938H227.978V107.574Z" fill="white"/>
<path d="M227.978 108.003H213.411V108.367H227.978V108.003Z" fill="white"/>
<path d="M227.978 108.432H213.411V108.796H227.978V108.432Z" fill="white"/>
<path d="M227.978 108.854H213.411V109.217H227.978V108.854Z" fill="white"/>
<path d="M227.978 109.282H213.411V109.646H227.978V109.282Z" fill="white"/>
<path d="M209.021 51.3706C217.357 52.5102 225.814 52.4613 234.137 51.2253C234.382 51.2215 234.623 51.165 234.844 51.0596C235.065 50.9543 235.261 50.8025 235.418 50.6148C235.797 49.9897 235.265 49.2338 234.828 48.6524C234.035 47.5819 233.473 46.3585 233.179 45.0597C232.884 43.761 232.864 42.4154 233.118 41.1082C226.908 46.7544 219.081 50.3134 210.739 51.2834L209.021 51.3706Z" fill="#F7444E"/>
<path opacity="0.4" d="M209.021 51.3706C217.357 52.5102 225.814 52.4613 234.137 51.2253C234.382 51.2215 234.623 51.165 234.844 51.0596C235.065 50.9543 235.261 50.8025 235.418 50.6148C235.797 49.9897 235.265 49.2338 234.828 48.6524C234.035 47.5819 233.473 46.3585 233.179 45.0597C232.884 43.761 232.864 42.4154 233.118 41.1082C226.908 46.7544 219.081 50.3134 210.739 51.2834L209.021 51.3706Z" fill="white"/>
<path d="M190.18 102.022H226.551V92.9948H190.18V102.022Z" fill="#F7444E"/>
<path opacity="0.6" d="M190.304 102.058H226.675V93.031H190.304V102.058Z" fill="white"/>
<path opacity="0.6" d="M190.187 102.058H218.099V93.031H190.187V102.058Z" fill="white"/>
<path d="M190.362 100.866L226.558 101.992L226.514 101.077L190.347 100.604L190.362 100.866Z" fill="#F7444E"/>
<path d="M226.558 96.694L190.42 94.6663V94.9715L226.558 97.3845V96.694Z" fill="#F7444E"/>
<path d="M226.558 93.9685L190.42 94.7971V95.0878L226.558 94.6517V93.9685Z" fill="#F7444E"/>
<path d="M226.66 98.4675L190.515 100.226V99.9575L226.66 97.8643V98.4675Z" fill="#F7444E"/>
<path d="M190.275 93.1111L226.413 93.1402V93.4381H190.275V93.1111Z" fill="#F7444E"/>
<path d="M192.794 75.1299H229.165V66.103H192.794V75.1299Z" fill="#F7444E"/>
<path opacity="0.6" d="M192.91 75.1733H229.281V66.1464H192.91V75.1733Z" fill="white"/>
<path opacity="0.6" d="M192.801 75.1733H220.712V66.1464H192.801V75.1733Z" fill="white"/>
<path d="M192.968 73.9816L229.165 75.1009L229.121 74.1851L192.954 73.72L192.968 73.9816Z" fill="#F7444E"/>
<path d="M229.165 69.8097L193.027 67.7747V68.0799L229.165 70.4929V69.8097Z" fill="#F7444E"/>
<path d="M229.165 67.0769L193.027 67.9055V68.2035L229.165 67.7674V67.0769Z" fill="#F7444E"/>
<path d="M229.266 71.583L193.121 73.3346V73.0729L229.266 70.9797V71.583Z" fill="#F7444E"/>
<path d="M192.342 92.8638H228.713V83.8369H192.342V92.8638Z" fill="#F7444E"/>
<path opacity="0.6" d="M192.459 92.9001H228.83V83.8732H192.459V92.9001Z" fill="white"/>
<path opacity="0.6" d="M220.334 83.8806H192.422V92.9075H220.334V83.8806Z" fill="white"/>
<path d="M228.553 91.4539L192.386 91.9263L192.342 92.8421L228.531 91.7155L228.553 91.4539Z" fill="#F7444E"/>
<path d="M192.575 83.9534L228.713 83.9824V84.2804H192.575V83.9534Z" fill="#F7444E"/>
<path d="M192.342 88.2268L228.48 85.8139V85.5159L192.342 87.5436V88.2268Z" fill="#F7444E"/>
<path d="M228.713 84.8181L192.575 85.6394V85.9374L228.713 85.5013V84.8181Z" fill="#F7444E"/>
<path d="M228.815 89.3171L192.67 91.076V90.8071L228.815 88.7139V89.3171Z" fill="#F7444E"/>
<path d="M227.454 75.3262L191.097 75.5079L191.046 84.3531H227.454V75.3262Z" fill="#F7444E"/>
<path opacity="0.6" d="M191.083 84.353H227.454V75.3261H191.083V84.353Z" fill="white"/>
<path opacity="0.6" d="M218.958 75.3262H191.046V84.3531H218.958V75.3262Z" fill="white"/>
<path d="M220.057 75.5078H191.097V76.4309H219.431L220.057 75.5078Z" fill="#F7444E"/>
<path d="M227.243 79.2073L191.097 79.5416V79.8105H227.243V79.2073Z" fill="#F7444E"/>
<path d="M191.097 83.3863L227.243 81.6274V81.8891L191.097 83.9896V83.3863Z" fill="#F7444E"/>
<path d="M191.097 79.9922L227.243 80.7117V80.9661L191.097 80.5882V79.9922Z" fill="#F7444E"/>
<path d="M236.736 55.6877H200.598V60.2303H236.736V55.6877Z" fill="#F7444E"/>
<path opacity="0.6" d="M236.736 55.6877H200.598V60.2303H236.736V55.6877Z" fill="white"/>
<path opacity="0.6" d="M229.39 55.6877H200.598V60.2303H229.39V55.6877Z" fill="white"/>
<path d="M236.758 58.9148L200.62 59.0892V59.2273H236.758V58.9148Z" fill="#F7444E"/>
<path d="M200.62 57.2141L236.758 56.2983V56.4364L200.62 57.5266V57.2141Z" fill="#F7444E"/>
<path d="M200.503 56.967L236.641 57.3377V57.4758L200.503 57.2723V56.967Z" fill="#F7444E"/>
<path d="M231.683 53.6892H195.545V55.8769H231.683V53.6892Z" fill="#F7444E"/>
<path opacity="0.6" d="M231.683 53.7036H195.545V55.8768H231.683V53.7036Z" fill="white"/>
<path opacity="0.6" d="M224.345 53.5728H195.545V55.884H224.345V53.5728Z" fill="white"/>
<path d="M195.56 55.3535L231.698 54.4377V54.5758L195.56 55.666V55.3535Z" fill="#F7444E"/>
<path d="M195.56 54.2561L231.698 54.6268V54.7649L195.56 54.5686V54.2561Z" fill="#F7444E"/>
<path d="M235.047 51.4507H198.909V53.6384H235.047V51.4507Z" fill="#F7444E"/>
<path opacity="0.6" d="M235.047 51.4651H198.909V53.6382H235.047V51.4651Z" fill="white"/>
<path opacity="0.6" d="M227.701 51.3342H198.909V53.6455H227.701V51.3342Z" fill="white"/>
<path d="M198.931 52.439L235.076 52.875L235.069 53.0204L198.916 52.7515L198.931 52.439Z" fill="#F7444E"/>
<path d="M198.931 52.0176L235.061 52.3882V52.5263L198.931 52.3301V52.0176Z" fill="#F7444E"/>
<path d="M234.297 60.2375H198.159V66.0883H234.297V60.2375Z" fill="#F7444E"/>
<path opacity="0.6" d="M234.297 60.2375H198.159V66.0883H234.297V60.2375Z" fill="white"/>
<path opacity="0.6" d="M226.041 60.2375H198.159V66.0883H226.041V60.2375Z" fill="white"/>
<path d="M234.064 62.0546L197.926 61.8511V61.6912H234.064V62.0546Z" fill="#F7444E"/>
<path d="M198.174 62.905L234.311 63.9588V63.7989L198.174 62.5488V62.905Z" fill="#F7444E"/>
<path d="M234.312 60.2375H200.227L200.984 60.9644H234.312V60.2375Z" fill="#F7444E"/>
<path d="M198.297 65.1871L234.435 64.751V64.5984L198.297 64.8237V65.1871Z" fill="#F7444E"/>
</svg>
