<svg width="380" height="282" viewBox="0 0 380 282" fill="none" xmlns="http://www.w3.org/2000/svg">
<path d="M347.333 281.907C364.678 281.907 378.739 273.787 378.739 263.77C378.739 253.753 364.678 245.632 347.333 245.632C329.989 245.632 315.928 253.753 315.928 263.77C315.928 273.787 329.989 281.907 347.333 281.907Z" fill="#EBEBEB"/>
<path d="M146.637 167.232C163.132 167.232 176.503 159.51 176.503 149.984C176.503 140.458 163.132 132.735 146.637 132.735C130.142 132.735 116.771 140.458 116.771 149.984C116.771 159.51 130.142 167.232 146.637 167.232Z" fill="#EBEBEB"/>
<path d="M193.765 194.686C210.259 194.686 223.631 186.964 223.631 177.438C223.631 167.912 210.259 160.19 193.765 160.19C177.27 160.19 163.898 167.912 163.898 177.438C163.898 186.964 177.27 194.686 193.765 194.686Z" fill="#EBEBEB"/>
<path d="M241.491 222.592C257.986 222.592 271.357 214.869 271.357 205.343C271.357 195.817 257.986 188.095 241.491 188.095C224.997 188.095 211.625 195.817 211.625 205.343C211.625 214.869 224.997 222.592 241.491 222.592Z" fill="#EBEBEB"/>
<path d="M290.017 250.207C306.511 250.207 319.883 242.485 319.883 232.959C319.883 223.433 306.511 215.71 290.017 215.71C273.522 215.71 260.15 223.433 260.15 232.959C260.15 242.485 273.522 250.207 290.017 250.207Z" fill="#EBEBEB"/>
<path d="M320.83 14.7932L326.581 18.1179C326.581 17.8602 326.536 17.6025 326.536 17.3576V15.7017C326.536 12.7314 328.616 11.5266 331.186 13.0085C332.296 13.6948 333.243 14.6137 333.962 15.7017C334.381 11.9647 337.312 10.5472 340.867 12.6283C344.731 14.8512 347.83 20.2506 347.83 24.6899V27.1899C347.853 28.186 347.653 29.1747 347.243 30.0829L352.023 32.8405C352.772 33.3318 353.396 33.9925 353.843 34.7692C354.291 35.5459 354.55 36.4169 354.599 37.3121C354.599 38.9615 353.439 39.6316 352.023 38.8069L320.83 20.766C320.078 20.277 319.452 19.6169 319.005 18.8397C318.557 18.0625 318.299 17.1903 318.253 16.2945C318.247 14.6386 319.393 13.9685 320.83 14.7932Z" fill="#EBEBEB"/>
<path d="M296.206 31.5713L300.547 34.0841C300.547 33.8844 300.515 33.6975 300.515 33.5042V32.2478C300.515 30.0056 302.087 29.0971 304.025 30.2182C304.861 30.7304 305.576 31.4186 306.119 32.2349C306.434 29.4128 308.643 28.369 311.329 29.9154C314.234 31.5906 316.585 35.6691 316.585 39.0196V40.901C316.604 41.6533 316.452 42.4002 316.141 43.0852L319.747 45.1728C320.311 45.5436 320.78 46.0418 321.115 46.6272C321.451 47.2125 321.644 47.8686 321.68 48.5425C321.68 49.7861 320.804 50.2951 319.747 49.6701L296.206 36.075C295.642 35.7028 295.174 35.2034 294.838 34.617C294.503 34.0306 294.309 33.3736 294.274 32.6988C294.274 31.4553 295.118 30.9527 296.206 31.5713Z" fill="#EBEBEB"/>
<path d="M358.714 255.142C360.273 253.3 364.472 251.631 369.728 251.277C374.984 250.922 380.31 250.284 379.563 247.153C378.758 243.777 374.044 242.939 369.129 244.17C363.764 245.51 359.275 250.117 358.74 253.338L358.714 255.142Z" fill="#37474F"/>
<path d="M358.785 254.021C358.855 254.031 358.925 254.021 358.989 253.992C359.053 253.964 359.107 253.918 359.146 253.86C364.209 246.367 373.438 246.367 376.227 247.204C376.274 247.219 376.323 247.225 376.371 247.22C376.42 247.216 376.467 247.202 376.51 247.179C376.554 247.157 376.592 247.125 376.623 247.088C376.654 247.05 376.677 247.006 376.691 246.959C376.719 246.865 376.709 246.764 376.664 246.677C376.618 246.591 376.54 246.525 376.446 246.496C373.496 245.6 363.835 245.587 358.528 253.454C358.475 253.537 358.457 253.637 358.476 253.733C358.495 253.829 358.551 253.914 358.631 253.97C358.678 253.997 358.731 254.014 358.785 254.021Z" fill="white"/>
<path d="M358.715 255.142C358.715 255.142 362.547 245.839 369.471 241.541C371.525 240.252 373.76 238.616 375.319 237.482C378.662 235.046 377.895 231.76 373.818 231.225C367.764 230.439 362.611 234.892 359.739 241.27C356.866 247.649 358.715 255.142 358.715 255.142Z" fill="#455A64"/>
<path d="M358.773 250.716C358.862 250.73 358.953 250.71 359.028 250.66C359.103 250.61 359.157 250.533 359.178 250.446C361.903 239.048 371.564 234.512 374.05 234.241C374.098 234.236 374.144 234.222 374.186 234.199C374.228 234.177 374.265 234.146 374.295 234.109C374.325 234.071 374.347 234.029 374.36 233.983C374.374 233.937 374.378 233.889 374.372 233.842C374.361 233.747 374.313 233.66 374.238 233.601C374.163 233.542 374.068 233.515 373.973 233.526C370.959 233.848 361.278 238.603 358.476 250.278C358.465 250.324 358.463 250.372 358.47 250.419C358.477 250.466 358.493 250.511 358.517 250.552C358.542 250.593 358.574 250.628 358.613 250.656C358.651 250.684 358.694 250.705 358.74 250.716H358.773Z" fill="white"/>
<path d="M360.698 143.921C363.783 143.193 365.786 145.796 367.783 150.647C369.78 155.499 373.316 167.316 374.14 170.557C374.514 172.006 365.323 185.002 365.715 184.809C365.838 184.751 362.128 178.546 362.128 178.546L366.636 169.912L363.416 162.065L360.698 143.921Z" fill="#FFA8A7"/>
<path d="M365.084 253.454C365.503 253.615 365.606 254.408 365.67 255.993C365.715 257.198 365.973 259.292 364.569 259.71C363.165 260.129 361.11 259.91 360.209 258.783C359.081 257.372 358.321 256.128 356.724 254.408C355.333 252.913 353.826 251.515 353.265 249.421C352.756 247.526 353.182 246.708 354.47 246.154C356.247 245.4 359.036 247.874 360.427 248.261C361.625 248.564 364.666 253.261 365.084 253.454Z" fill="#263238"/>
<path d="M365.084 250.877V253.918C364.354 254.387 363.51 254.648 362.643 254.672C361.776 254.695 360.918 254.482 360.164 254.053C360.08 253.867 359.835 250.877 359.835 250.877H365.084Z" fill="#FFA8A7"/>
<path d="M350.605 263.763C350.605 263.763 351.159 265.451 351.462 266.933C351.7 268.112 352.042 270.077 351.629 270.96C351.217 271.843 349.613 272.416 347.121 272.397C345.511 272.397 342.992 273.486 341.273 274.446C339.553 275.406 337.563 275.445 335.682 275.219C333.466 274.961 331.173 273.673 330.813 272.758C330.452 271.843 330.916 271.398 336.139 269.169C336.184 269.169 341.646 266.682 344.171 263.892L350.605 263.763Z" fill="#263238"/>
<path d="M350.605 261.663C350.605 261.663 350.605 263.106 350.605 263.931C350.605 264.756 349.633 265.986 347.114 265.896C345.343 265.832 344.1 265.355 344.171 263.899V261.792L350.605 261.663Z" fill="#FFA8A7"/>
<path d="M368.343 228.384C368.182 221.941 366.862 219.144 366.862 219.144C366.862 219.144 367.351 211.213 368.421 201.51C370.044 186.722 369.297 183.862 366.379 177.206C366.379 177.206 341.504 174.687 340.751 185.028C339.804 197.914 339.688 220.742 340.036 225.291C340.384 229.84 340.371 228.996 341.472 238.178C342.348 245.458 344.152 261.766 344.152 261.766C345.153 262.275 346.265 262.53 347.388 262.508C348.511 262.485 349.612 262.186 350.592 261.637C350.592 261.637 352.621 240.929 352.409 235.684C352.151 229.273 351.765 227.643 351.765 227.643C351.765 227.643 354.676 208.707 355.127 205.363C355.127 205.363 355.533 211.342 355.874 215.891C356.215 220.44 356.183 222.295 357.162 231.702C357.916 239.08 359.738 251.676 359.738 251.676C360.613 252.032 361.558 252.181 362.5 252.111C363.442 252.042 364.355 251.756 365.168 251.276C365.168 251.276 368.498 233.577 368.343 228.384Z" fill="#F7444E"/>
<path d="M347.958 140.57L349.124 150.183L357.574 149.423L356.608 138.747L347.958 140.57Z" fill="#FFA8A7"/>
<path d="M365.818 148.566C364.891 146.04 362.759 143.412 359.513 143.991C358.663 144.152 357.922 144.275 357.123 144.436C357.053 146.646 352.879 147.793 348.718 146.453C347.469 146.813 346.322 147.174 345.285 147.548C342.309 148.611 341.118 153.553 341.047 161.82C340.976 170.086 340.107 190.711 340.107 190.711L343.585 191.806L345.208 185.769L345.852 192.998C349.803 193.919 353.915 193.9 357.858 192.94C366.798 191.007 369.574 186.162 369.574 186.162C368.1 180.328 365.701 174.768 362.469 169.693C366.952 157.793 367.197 152.297 365.818 148.566Z" fill="#37474F"/>
<path d="M341.678 128.354C341.172 127.206 340.966 125.948 341.078 124.698C341.191 123.448 341.619 122.247 342.322 121.208C345.156 116.756 350.625 115.996 357.136 117.729C359.398 118.424 361.39 119.8 362.842 121.669C364.293 123.538 365.132 125.809 365.245 128.173C365.555 132.928 352.299 136.434 352.602 139.687L341.678 128.354Z" fill="#263238"/>
<path d="M341.396 130.164C341.396 130.164 339.591 133.044 339.849 133.341C340.295 133.617 340.786 133.813 341.299 133.921L341.396 130.164Z" fill="#F28F8F"/>
<path d="M346.876 121.022C345.079 122.014 341.981 123.844 341.35 130.577C340.706 137.49 342.303 139.848 343.282 140.725C343.926 141.317 347.211 141.453 348.898 140.873C351.017 140.151 355.584 137.741 357.658 134.127C360.092 129.868 360.472 124.275 357.465 122.168C353.227 119.205 348.377 120.184 346.876 121.022Z" fill="#FFA8A7"/>
<path d="M346.87 121.84C345.82 124.37 345.168 127.048 344.937 129.778C344.109 129.786 343.286 129.654 342.503 129.385C342.503 129.385 342.471 126.485 343.25 124.836C342.502 126.165 342.021 127.627 341.833 129.14C340.999 129.072 340.201 128.773 339.527 128.277C338.883 125.177 340.815 118.786 346.322 117.768L346.87 121.84Z" fill="#263238"/>
<path d="M346.348 121.324C346.348 121.324 344.931 127.658 346.94 131.582C346.94 131.582 347.984 129.095 350.116 129.746C352.248 130.396 352.138 133.231 350.509 134.726C350.092 135.151 349.564 135.45 348.986 135.59C348.407 135.729 347.801 135.702 347.237 135.512C347.955 137.301 349.028 138.925 350.393 140.287C350.393 140.287 356.692 143.096 362.147 136.936C367.1 131.35 366.179 121.601 358.598 119.308C351.018 117.014 346.348 121.324 346.348 121.324Z" fill="#263238"/>
<path d="M367.319 135.596C368.814 137.181 368.53 139.874 366.675 141.614C364.82 143.353 362.128 143.482 360.634 141.904C359.139 140.325 359.423 137.619 361.278 135.879C363.133 134.14 365.819 134.011 367.319 135.596Z" fill="#263238"/>
<path d="M364.73 132.825C364.356 132.946 364.044 133.211 363.864 133.561C363.685 133.911 363.651 134.319 363.77 134.694L366.598 133.785C366.477 133.411 366.212 133.099 365.862 132.919C365.512 132.739 365.105 132.706 364.73 132.825Z" fill="#263238"/>
<path d="M323.902 162.773C322.671 161.375 322.472 158.263 320.836 156.15C319.2 154.036 319.496 151.872 318.472 152.825C317.448 153.779 318.214 157.277 318.214 157.277C318.214 157.277 316.314 160.808 316.147 162.612C315.979 164.416 320.771 168.959 320.771 168.959L323.902 162.773Z" fill="#FFA8A7"/>
<path d="M318.472 157.032C318.472 157.032 316.54 159.738 307.819 156.201C305.41 155.228 307.033 160.409 309.989 162.554C312.72 164.539 316.14 165.131 318.878 167.006C318.884 166.742 318.472 157.032 318.472 157.032Z" fill="#FFA8A7"/>
<path d="M346.026 147.29C343.54 148.154 341.369 149.159 339.05 153.514C336.068 159.12 330.677 170.086 330.677 170.086L323.902 162.773C323.902 162.773 322.916 161.388 321.087 164.41C319.258 167.432 320.069 168.276 320.069 168.276C320.069 168.276 327.927 178.797 329.363 180.137C330.8 181.478 333.176 180.434 334.722 178.333C336.268 176.233 344.261 161.742 344.261 161.742C344.261 161.742 349.536 152.587 346.026 147.29Z" fill="#FFA8A7"/>
<path opacity="0.2" d="M355.159 205.388L355.629 200.362C358.327 199.959 360.906 198.979 363.191 197.489C363.191 197.489 361.574 200.066 357.143 201.258L356.138 206.155L355.88 215.916L355.159 205.388Z" fill="black"/>
<path d="M340.938 167.528C340.938 167.528 344.062 162.058 344.261 161.729L340.687 175.602L340.938 167.528Z" fill="#263238"/>
<path d="M303.871 134.713C304.785 135.674 306.956 136.414 321.01 137.439C323.056 137.638 325.12 137.367 327.045 136.646C328.941 135.898 330.57 134.599 331.721 132.916C331.992 132.545 332.193 132.128 332.313 131.685C332.423 131.248 332.356 130.785 332.127 130.397C331.85 130.031 331.453 129.775 331.006 129.675C330.121 129.474 329.194 129.574 328.372 129.958C327.083 130.461 326.079 130.635 326.175 130.371C326.272 130.107 327.058 129.868 327.863 128.96C328.668 128.051 328.874 126.775 328.352 126.382C327.831 125.989 327.921 126.073 326.993 126.846C326.066 127.62 324.997 128.013 323.773 129.198C322.999 130.08 322.022 130.759 320.926 131.176C319.515 131.737 318.182 131.569 314.266 130.944C310.885 130.403 309.584 130.21 307.961 129.308C306.215 126.653 302.003 115.436 300.174 112.362C298.241 109.108 294.312 109.012 294.312 109.012C294.347 113.018 295.017 116.993 296.296 120.79C297.649 124.591 302.963 133.766 303.871 134.713Z" fill="#B16668"/>
<path d="M293.25 108.645C294.868 108.376 296.53 108.669 297.958 109.476C300.09 110.816 301.481 113.297 302.827 116.402C304.476 120.178 306.46 125.229 306.46 125.229C304.544 127.093 302.039 128.232 299.375 128.451L293.031 117.903L293.25 108.645Z" fill="#455A64"/>
<path d="M278.249 229.634H283.724V220.259H278.249V229.634Z" fill="#B16668"/>
<path d="M293.398 222.618L298.872 222.804L299.143 212.888L293.398 212.695V222.618Z" fill="#B16668"/>
<path d="M275.917 150.255C275.917 155.486 276.845 185.905 276.845 185.905C276.716 187.406 275.267 190.08 275.157 195.505C274.99 203.365 278.017 224.944 278.017 224.944C278.962 225.408 279.997 225.66 281.05 225.681C282.103 225.703 283.147 225.493 284.11 225.066C284.11 225.066 286.596 195.808 287.575 188.031C288.432 181.24 289.881 162.793 289.881 162.793L292.457 184.957C291.823 187.813 291.593 190.743 291.775 193.662C292.032 197.264 293.063 219.544 293.063 219.544C294.017 220.084 295.078 220.408 296.171 220.491C297.265 220.575 298.363 220.416 299.388 220.027C299.388 220.027 303.252 188.263 303.31 184.957C303.381 181.195 301.88 142.768 301.88 142.768L275.917 150.255Z" fill="#37474F"/>
<path d="M279.518 111.782C278.314 112.318 277.366 113.303 276.877 114.527C276.317 116.042 276.046 117.648 276.079 119.263V129.991L275.917 150.254C283.775 154.397 293.765 154.674 302.151 148.547C302.151 148.547 301.681 122.472 301.681 118.206C301.681 118.013 301.681 117.82 301.681 117.62C301.372 111.525 295.375 107.311 289.443 108.864L284.484 110.152L279.505 111.795L279.518 111.782Z" fill="#F0F0F0"/>
<path d="M298.895 97.15C301.833 94.2111 301.833 89.4461 298.895 86.5072C295.958 83.5683 291.194 83.5683 288.256 86.5072C285.319 89.4461 285.319 94.2111 288.257 97.15C291.194 100.089 295.958 100.089 298.895 97.15Z" fill="#263238"/>
<path d="M280.568 97.1755C280.568 97.1755 281.785 102.904 282.274 103.851C282.6 104.431 283.138 104.863 283.775 105.056L283.691 101.029L280.568 97.1755Z" fill="#263238"/>
<path d="M282.094 88.9672C281.668 88.9175 281.237 88.966 280.833 89.1089C280.428 89.2519 280.062 89.4855 279.762 89.7919C278.758 90.8163 279.318 94.0315 280.568 97.1757L282.86 97.4399L282.094 88.9672Z" fill="#263238"/>
<path d="M283.55 97.4398C283.092 97.7169 282.435 96.8342 281.869 96.2349C281.302 95.6357 279.447 94.8303 278.519 96.7826C277.592 98.7349 279.337 101.389 280.793 101.847C283.311 102.639 283.691 101.029 283.691 101.029L283.872 110.378C287.002 114.392 295.678 114.05 292.064 109.862V107.098C293.184 107.278 294.32 107.337 295.452 107.272C297.301 106.989 298.467 105.526 299.027 103.522C299.929 100.301 300.27 97.7233 299.51 91.3832C298.666 84.4504 290.609 84.3731 286.255 87.1179C281.901 89.8627 283.55 97.4398 283.55 97.4398Z" fill="#B16668"/>
<path d="M283.55 98.2195C283.318 98.2195 282.442 96.7569 281.869 96.235C281.07 95.5134 282.094 88.9672 282.094 88.9672C281.886 88.4004 281.848 87.7852 281.984 87.197C282.12 86.6089 282.425 86.0731 282.861 85.6554C283.949 84.4569 285.134 83.7224 288.271 83.5356C290.422 83.5255 292.571 83.6266 294.712 83.8384C297.81 84.0446 298.95 83.2843 300.734 82.7817C302.093 82.4016 302.247 87.2919 298.802 88.9478C298.802 88.9478 297.681 89.6695 294.737 90.0303C292.016 90.2311 289.282 90.1793 286.57 89.8756C285.72 89.7597 285.54 90.5844 285.076 92.8459C284.664 94.8369 284.329 98.1744 283.55 98.2195Z" fill="#263238"/>
<path d="M282.101 89.4762L279.318 87.9814C279.407 87.794 279.533 87.6266 279.688 87.4893C279.844 87.352 280.025 87.2476 280.222 87.1826C280.419 87.1175 280.627 87.0931 280.834 87.1108C281.04 87.1285 281.241 87.188 281.424 87.2855C281.797 87.494 282.074 87.8378 282.2 88.2456C282.326 88.6534 282.291 89.094 282.101 89.4762Z" fill="#263238"/>
<path d="M292.058 107.098C292.058 107.098 287.929 106.267 286.487 105.501C285.637 105.058 284.941 104.368 284.49 103.522C284.707 104.368 285.093 105.162 285.624 105.855C286.68 107.202 292.064 108.2 292.064 108.2L292.058 107.098Z" fill="#9A4A4D"/>
<path d="M291.853 96.409C291.845 96.5703 291.791 96.7258 291.695 96.8562C291.6 96.9867 291.469 97.0863 291.318 97.1429C291.167 97.1994 291.002 97.2103 290.845 97.1743C290.687 97.1382 290.544 97.0568 290.432 96.94C290.321 96.8233 290.246 96.6764 290.217 96.5176C290.189 96.3587 290.207 96.1949 290.27 96.0465C290.334 95.898 290.439 95.7714 290.574 95.6824C290.709 95.5934 290.867 95.5458 291.028 95.5457C291.139 95.5473 291.249 95.5711 291.351 95.6155C291.453 95.66 291.545 95.7243 291.621 95.8046C291.698 95.885 291.758 95.9798 291.798 96.0836C291.838 96.1873 291.856 96.298 291.853 96.409Z" fill="#263238"/>
<path d="M290.977 93.2842L289.205 94.2636C289.08 94.0202 289.054 93.7384 289.13 93.476C289.207 93.2135 289.381 92.9905 289.617 92.8525C289.734 92.7884 289.863 92.7487 289.996 92.7358C290.129 92.7229 290.263 92.7371 290.39 92.7774C290.517 92.8178 290.634 92.8835 290.735 92.9706C290.836 93.0577 290.919 93.1644 290.977 93.2842Z" fill="#263238"/>
<path d="M291.697 102.124L293.585 102.839C293.545 102.968 293.48 103.088 293.394 103.191C293.307 103.294 293.2 103.378 293.079 103.439C292.959 103.499 292.827 103.534 292.692 103.542C292.558 103.55 292.423 103.53 292.296 103.484C292.039 103.38 291.832 103.18 291.72 102.926C291.608 102.672 291.6 102.384 291.697 102.124Z" fill="#9A4A4D"/>
<path d="M298.996 93.9735L297.378 92.73C297.454 92.6202 297.551 92.5271 297.664 92.4564C297.777 92.3857 297.903 92.339 298.034 92.3191C298.166 92.2991 298.301 92.3064 298.429 92.3406C298.558 92.3747 298.678 92.4348 298.783 92.5173C298.998 92.6867 299.14 92.9321 299.18 93.203C299.219 93.4739 299.153 93.7497 298.996 93.9735Z" fill="#263238"/>
<path d="M298.5 96.1704C298.51 96.2853 298.496 96.401 298.459 96.5102C298.422 96.6194 298.363 96.7198 298.285 96.8048C298.207 96.8899 298.112 96.9578 298.007 97.0042C297.901 97.0507 297.787 97.0747 297.672 97.0747C297.556 97.0747 297.442 97.0507 297.337 97.0042C297.231 96.9578 297.136 96.8899 297.059 96.8048C296.981 96.7198 296.921 96.6194 296.884 96.5102C296.847 96.401 296.833 96.2853 296.844 96.1704C296.84 96.0597 296.859 95.9493 296.899 95.8459C296.939 95.7425 296.999 95.6481 297.075 95.5683C297.152 95.4884 297.244 95.4248 297.346 95.381C297.448 95.3372 297.558 95.3143 297.668 95.3135C297.779 95.3152 297.889 95.3387 297.99 95.3826C298.092 95.4266 298.184 95.4902 298.262 95.5698C298.339 95.6494 298.4 95.7434 298.44 95.8464C298.481 95.9495 298.501 96.0596 298.5 96.1704Z" fill="#263238"/>
<path d="M294.28 95.3911L294.551 100.365L297.153 99.4825L294.28 95.3911Z" fill="#9A4A4D"/>
<path d="M283.724 226.928V226.148C284.245 226.374 285.463 231.019 287.64 233.004C289.366 234.576 291.723 236.4 292.322 238.158C292.921 239.917 289.037 240.993 287.427 240.736C285.553 240.401 282.274 239.08 281.489 237.856C280.703 236.631 280.291 234.827 279.627 233.932C278.964 233.036 277.437 232.031 277.051 230.994C276.858 230.427 277.09 229.177 277.367 228.12C277.643 227.063 277.895 226.09 278.223 226.187V226.78C279.001 227.396 279.968 227.723 280.961 227.708C281.785 227.682 283.73 227.54 283.724 226.928Z" fill="#263238"/>
<path d="M298.93 221.116C299.214 221.116 299.446 221.529 300.071 222.205C301.007 223.153 302.095 223.937 303.291 224.525C305.339 225.549 309.326 227.102 311.129 227.946C312.257 228.455 312.205 229.815 311.039 230.588C309.873 231.361 307.065 231.921 303.684 231.168C301.848 230.755 299.452 229.054 297.939 229.144C296.425 229.235 293.585 229.215 292.464 228.442C291.343 227.669 291.82 226.026 292.11 224.608C292.457 223.069 292.889 220.659 293.398 220.743V221.277C294.042 222.27 297.456 222.676 298.898 221.922L298.93 221.116Z" fill="#263238"/>
<path d="M289.881 162.793C292.709 161.91 295.308 160.417 297.494 158.418C297.494 158.418 296.026 161.176 291.646 163.74L292.232 183.069L289.881 162.793Z" fill="#263238"/>
<path d="M267.003 139.005C270.514 118.451 274.088 112.201 279.995 111.989C281.811 113.954 281.643 120.178 279.119 124.069C279.119 124.069 273.708 137.13 272.968 141.717C272.324 145.744 271.609 150.802 271.834 154.23C271.884 154.834 272.152 155.4 272.588 155.821C273.753 156.968 273.805 157.928 274.584 159.217C275.196 160.228 275.827 160.583 275.666 160.828C275.448 161.086 275.141 161.252 274.805 161.294C274.47 161.336 274.131 161.25 273.856 161.053C273.32 160.705 272.837 160.282 272.42 159.797C272.677 161.058 273.111 162.277 273.708 163.418C275.087 166.15 274.861 167.593 271.029 166.788C268.633 166.279 267.049 164.378 266.411 158.708C266.138 156.621 266.013 154.517 266.037 152.413C266.256 146.988 266.45 142.239 267.003 139.005Z" fill="#B16668"/>
<path d="M281.431 111.151C279.64 111.48 275.048 111.641 272.691 116.389C271.145 119.514 269.586 124.411 267.918 130.274C267.918 130.274 271.364 133.844 276.446 133.335L279.292 125.126C281.991 121.634 282.68 113.78 281.431 111.151Z" fill="#455A64"/>
<path d="M248.827 109.772C243.823 89.6114 238.103 84.9336 243.449 82.2146C248.943 81.6798 251.777 84.9272 252.73 90.7132C253.201 93.5481 254.218 105.172 255.493 109.727C256.621 113.728 258.128 118.715 259.802 121.776C260.104 122.317 260.595 122.728 261.181 122.929C262.746 123.489 263.21 124.359 264.478 125.216C265.477 125.861 266.211 125.944 266.166 126.234C266.078 126.567 265.866 126.854 265.574 127.037C265.283 127.22 264.932 127.285 264.594 127.22C263.95 127.126 263.321 126.944 262.727 126.679C263.497 127.734 264.412 128.676 265.445 129.475C267.892 131.408 268.298 132.851 264.414 133.741C261.979 134.295 259.706 133.219 256.685 128.251C255.538 126.438 254.522 124.546 253.645 122.587C251.545 117.504 249.632 113.045 248.827 109.772Z" fill="#FFA8A7"/>
<path d="M231.559 199.687V198.907C231.868 199.822 233.298 203.772 235.469 205.75C237.195 207.328 239.546 209.145 240.145 210.904C240.744 212.663 236.873 213.34 235.256 213.056C233.389 212.728 230.967 211.664 229.646 210.041C228.719 208.9 228.126 207.554 227.463 206.658C226.8 205.763 225.28 204.757 224.887 203.72C224.693 203.153 224.925 201.903 225.202 200.853C225.479 199.803 225.73 198.817 226.059 198.92V199.513C226.84 200.124 227.805 200.451 228.796 200.44C229.627 200.453 231.566 200.299 231.559 199.687Z" fill="#263238"/>
<path d="M237.028 207.134C236.493 206.658 235.958 206.194 235.469 205.743C233.955 204.364 232.796 202.019 232.133 200.414C231.754 199.504 231.559 198.527 231.559 197.541V194.422H226.091V199.493V199.628C226.355 200.762 228.867 203.784 230.29 205.756C231.244 207.076 233.06 208.758 235.231 209.048C237.317 209.344 238.367 208.694 237.028 207.134Z" fill="#FFA8A7"/>
<path d="M252.891 194.293V193.533C253.194 194.448 254.63 198.398 256.794 200.376C258.521 201.954 260.878 203.771 261.47 205.53C262.063 207.289 258.199 207.966 256.588 207.682C254.714 207.354 252.292 206.291 250.972 204.667C250.044 203.527 249.458 202.18 248.795 201.284C248.132 200.389 246.605 199.384 246.251 198.346C246.051 197.779 246.283 196.529 246.56 195.479C246.837 194.429 247.088 193.449 247.423 193.546V194.139C248.201 194.75 249.165 195.078 250.154 195.067C250.953 195.06 252.898 194.906 252.891 194.293Z" fill="#263238"/>
<path d="M258.36 201.742C257.825 201.265 257.284 200.801 256.795 200.356C255.281 198.971 254.128 196.626 253.465 195.022C253.085 194.111 252.89 193.134 252.891 192.148V189.023H247.423V194.094V194.229C247.687 195.363 250.193 198.385 251.623 200.356C252.576 201.677 254.392 203.359 256.563 203.649C258.643 203.952 259.693 203.301 258.36 201.742Z" fill="#FFA8A7"/>
<path d="M227.18 114.676C222.942 123.934 227.334 156.556 227.334 156.556C227.205 158.057 225.486 161.021 224.848 167.632C224.088 175.447 226.033 195.08 226.033 195.08C226.867 195.564 227.806 195.836 228.769 195.875C229.732 195.913 230.69 195.715 231.559 195.299C231.559 195.299 236.77 165.738 237.749 157.967C238.606 151.182 240.248 136.267 240.248 136.267L244.911 157.928C244.23 160.114 243.736 162.353 243.436 164.623C242.992 169.191 247.423 190.479 247.423 190.479C247.423 190.479 249.31 191.169 252.891 190.64C252.891 190.64 254.457 162.4 254.869 156.891C255.558 147.645 253.104 118.786 251.41 113.31L227.18 114.676Z" fill="#F7444E"/>
<path opacity="0.1" d="M240.248 136.273L241.626 127.671C241.626 127.671 247.423 126.466 250.09 123.979C250.09 123.979 247.32 127.433 243.204 128.56L241.659 135.184L244.357 155.235L240.248 136.273Z" fill="black"/>
<path d="M234.657 82.4918C229.221 82.8655 228.861 85.4943 227.482 88.3679C226.484 90.579 226.392 93.0931 227.225 95.3716L231.012 106.325C229.468 108.987 228.185 111.792 227.18 114.701C236.686 120.004 248.55 117.214 251.41 113.342C251.532 112.523 250.798 106.099 250.341 101.905C252.015 97.704 252.46 95.043 251.751 92.2402C250.463 87.0857 245.356 82.0665 243.101 82.2469L234.657 82.4918Z" fill="#F5F5F5"/>
<path d="M241.118 77.4982H237.111C235.784 77.5042 234.468 77.2483 233.239 76.7454C232.01 76.2424 230.893 75.5022 229.95 74.5669C229.007 73.6317 228.258 72.5198 227.745 71.2948C227.232 70.0698 226.966 68.7557 226.961 67.4276C226.947 64.2144 228.209 61.1272 230.47 58.8449C232.731 56.5625 235.806 55.2718 239.018 55.2565C240.609 55.2497 242.186 55.5564 243.658 56.1593C245.131 56.7621 246.47 57.6491 247.6 58.7697C248.729 59.8903 249.628 61.2226 250.243 62.6904C250.858 64.1583 251.178 65.7329 251.185 67.3245C251.193 68.6542 250.939 69.9726 250.438 71.204C249.936 72.4355 249.196 73.5558 248.261 74.5009C247.326 75.4459 246.214 76.1971 244.988 76.7115C243.762 77.2258 242.447 77.4932 241.118 77.4982Z" fill="#263238"/>
<path d="M235.881 52.428C237.614 55.0053 235.778 56.7192 233.228 58.4524C230.677 60.1856 228.391 61.2423 226.658 58.6972C224.925 56.1522 225.879 53.3043 228.429 51.6097C230.98 49.9152 234.155 49.883 235.881 52.428Z" fill="#263238"/>
<path d="M229.646 60.3144L227.07 62.2087C226.938 62.0462 226.841 61.8588 226.783 61.6577C226.726 61.4565 226.709 61.2458 226.735 61.0382C226.761 60.8306 226.828 60.6304 226.934 60.4495C227.039 60.2687 227.179 60.111 227.347 59.9858C227.697 59.7293 228.134 59.6201 228.564 59.6815C228.993 59.7429 229.382 59.9701 229.646 60.3144Z" fill="#263238"/>
<path d="M246.509 60.675C247.797 61.4225 249.388 64.6376 249.259 71.39C249.149 77.1115 247.327 78.529 246.373 78.9414C245.42 79.3538 243.649 79.1154 241.903 78.8319L242.006 82.3047C242.006 82.3047 244.943 84.7145 244.802 86.2866C244.66 87.8587 240.725 88.5868 238.458 87.0598C236.98 86.0318 235.612 84.8552 234.374 83.5483C234.315 83.4827 234.283 83.3978 234.284 83.3099V74.6503C234.284 74.6503 233.26 75.6554 231.514 74.1348C230.072 72.8848 229.582 70.765 230.69 69.6246C230.979 69.3521 231.329 69.1525 231.71 69.0421C232.091 68.9318 232.494 68.914 232.883 68.9902C233.273 69.0665 233.639 69.2345 233.951 69.4804C234.263 69.7263 234.512 70.0429 234.677 70.4042C234.677 70.4042 237.466 70.4944 241.163 68.4391C242.601 67.6568 243.835 66.546 244.764 65.197C245.693 63.8479 246.291 62.2986 246.509 60.675Z" fill="#FFA8A7"/>
<path d="M242.87 69.9793C242.872 70.1208 242.833 70.26 242.757 70.3793C242.681 70.4987 242.571 70.593 242.442 70.6505C242.312 70.708 242.169 70.7262 242.029 70.7028C241.89 70.6795 241.76 70.6155 241.656 70.519C241.553 70.4224 241.48 70.2976 241.447 70.1599C241.414 70.0223 241.422 69.8779 241.47 69.7448C241.518 69.6118 241.605 69.4958 241.719 69.4115C241.832 69.3272 241.968 69.2781 242.11 69.2705C242.304 69.2653 242.493 69.3366 242.635 69.4692C242.777 69.6018 242.862 69.785 242.87 69.9793Z" fill="#263238"/>
<path d="M243.082 74.8245L244.757 75.3528C244.727 75.4649 244.674 75.5697 244.603 75.6612C244.531 75.7527 244.442 75.8289 244.341 75.8853C244.239 75.9418 244.127 75.9773 244.012 75.9899C243.896 76.0024 243.78 75.9918 243.668 75.9585C243.444 75.8804 243.258 75.7193 243.149 75.5083C243.04 75.2974 243.016 75.0526 243.082 74.8245Z" fill="#F28F8F"/>
<path d="M248.757 67.7435L247.294 66.7448C247.355 66.6456 247.435 66.5598 247.529 66.4927C247.624 66.4255 247.731 66.3785 247.845 66.3543C247.958 66.3302 248.075 66.3295 248.189 66.3523C248.303 66.3752 248.411 66.421 248.506 66.4871C248.7 66.625 248.834 66.8319 248.881 67.0654C248.928 67.2989 248.883 67.5415 248.757 67.7435Z" fill="#263238"/>
<path d="M248.429 69.4379C248.43 69.5792 248.389 69.7177 248.312 69.8362C248.235 69.9547 248.125 70.0481 247.996 70.1046C247.866 70.1612 247.723 70.1784 247.584 70.1543C247.444 70.1302 247.315 70.0657 247.212 69.9689C247.109 69.8721 247.037 69.7472 247.005 69.6097C246.972 69.4722 246.98 69.3281 247.029 69.1954C247.078 69.0627 247.164 68.9472 247.278 68.8631C247.391 68.7791 247.527 68.7303 247.668 68.7227C247.864 68.7175 248.053 68.7897 248.196 68.9237C248.338 69.0576 248.422 69.2425 248.429 69.4379Z" fill="#263238"/>
<path d="M245.188 68.6777L245.169 73.3684L247.443 72.6532L245.188 68.6777Z" fill="#F28F8F"/>
<path d="M241.903 78.845C240.061 78.6066 236.274 77.5564 235.681 76.0422C235.915 76.8093 236.381 77.4848 237.015 77.9752C238.148 78.9352 241.935 80.0241 241.935 80.0241L241.903 78.845Z" fill="#F28F8F"/>
<path d="M237.085 115.7C236.341 115.529 235.639 115.21 235.019 114.764C234.4 114.318 233.876 113.752 233.477 113.1C233.079 112.449 232.815 111.724 232.7 110.969C232.585 110.214 232.622 109.443 232.809 108.703C232.835 108.6 232.868 108.499 232.905 108.4C233.035 107.998 233.296 107.653 233.647 107.419C233.998 107.185 234.417 107.076 234.838 107.111C234.262 106.67 233.781 106.118 233.42 105.489C233.06 104.86 232.828 104.165 232.738 103.445L231.308 96.6991C231.17 95.5807 231.269 94.4458 231.598 93.368L227.778 88.948L227.076 89.4377C226.496 91.3775 226.55 93.4521 227.231 95.3589L231.018 106.312C229.451 108.963 228.167 111.77 227.186 114.688C230.278 116.352 233.691 117.332 237.194 117.563C240.698 117.794 244.21 117.271 247.494 116.029C244.035 116.581 240.503 116.47 237.085 115.7Z" fill="#E0E0E0"/>
<path d="M235.018 131.872L221.196 123.947C221.196 123.947 214.472 133.187 219.051 135.796C223.631 138.405 228.171 141.066 232.732 143.702C237.897 141.704 235.018 131.872 235.018 131.872Z" fill="#37474F"/>
<path d="M232.732 133.186L221.917 126.93V127.529L232.732 133.85V133.186Z" fill="#F7444E"/>
<path d="M235.018 131.872C234.129 134.771 231.456 142.987 232.738 143.727C234.02 144.468 237.981 141.917 237.891 140.377C237.665 136.041 235.018 131.872 235.018 131.872Z" fill="#455A64"/>
<path d="M231.199 82.466C231.764 82.4098 232.333 82.535 232.823 82.8234C233.312 83.1118 233.698 83.5485 233.923 84.0704C236.132 88.2713 234.612 131.647 234.612 131.647L233.118 130.79C233.118 130.79 233.64 116.808 233.588 104.076C233.55 94.7273 233.202 85.9002 232.803 84.9402C232.612 84.3875 232.239 83.9162 231.745 83.6036C231.251 83.291 230.665 83.1557 230.084 83.2198C230.204 83.0204 230.366 82.8496 230.558 82.7193C230.751 82.5891 230.969 82.5026 231.199 82.466Z" fill="#263238"/>
<path d="M217.454 109.772C221.679 92.4917 224.958 85.0756 229.582 83.3553C229.928 83.2208 230.3 83.1657 230.671 83.194C231.041 83.2222 231.4 83.3331 231.722 83.5185C232.044 83.7039 232.32 83.9592 232.531 84.2654C232.741 84.5716 232.88 84.9212 232.938 85.2882C233.337 88.7755 232.475 92.2904 230.51 95.1978C230.51 95.1978 224.346 108.213 223.36 112.839C222.497 116.885 221.525 121.976 221.576 125.468C221.589 126.097 221.832 126.7 222.259 127.162C223.392 128.387 223.392 129.372 224.127 130.725C224.693 131.782 225.318 132.182 225.144 132.413C224.91 132.667 224.589 132.823 224.245 132.849C223.901 132.876 223.559 132.771 223.289 132.555C222.764 132.173 222.294 131.719 221.892 131.209C222.083 132.502 222.456 133.763 223 134.952C224.288 137.806 223.959 139.263 220.108 138.245C217.692 137.6 216.179 135.596 215.818 129.791C215.638 127.648 215.617 125.494 215.754 123.348C216.288 117.865 216.655 113.026 217.454 109.772Z" fill="#FFA8A7"/>
<path d="M214.626 85.2881C215.013 81.5124 215.013 79.9145 214.897 79.4441C214.369 77.2986 212.875 75.5782 211.303 73.001C208.611 68.5359 204.54 61.5644 202.666 58.8711C201.184 56.7578 199.587 55.5207 197.146 55.6496C195.446 55.7462 196.766 62.4793 198.434 67.331L207.419 79.7341C207.715 80.1392 207.85 80.6396 207.799 81.1387L206.923 89.9787L209.789 93.8124C209.789 93.8124 214.131 90.1011 214.626 85.2881Z" fill="#FFA8A7"/>
<path d="M214.678 84.7469C214.549 84.1026 214.098 83.5292 212.92 83.5743C211.741 83.6194 210.82 85.14 210.82 85.14L214.143 86.6154C214.317 86.1773 214.485 85.7263 214.626 85.2753C214.646 85.0949 214.665 84.9209 214.678 84.7469Z" fill="#F28F8F"/>
<path d="M196.161 55.5852C196.161 55.5852 199.851 55.1213 201.899 57.3507C203.948 59.58 204.946 61.4421 206.93 64.7345C209.319 68.7035 210.356 70.7395 210.356 70.7395C210.356 70.7395 206.621 75.733 201.114 75.0822L196.161 55.5852Z" fill="#37474F"/>
<path d="M202.541 43.6603C205.522 40.6786 205.522 35.8443 202.541 32.8626C199.56 29.8809 194.728 29.8809 191.747 32.8626C188.767 35.8443 188.767 40.6786 191.747 43.6603C194.728 46.642 199.56 46.642 202.541 43.6603Z" fill="#263238"/>
<path d="M178.873 176.633H184.251V167.425H178.873V176.633Z" fill="#FFA8A7"/>
<path d="M197.513 170.19L202.885 170.377L203.155 160.635L197.784 160.454L197.513 170.19Z" fill="#FFA8A7"/>
<path d="M179.228 94.4565C179.228 99.611 178.584 130.712 178.584 130.712C178.455 132.188 177.076 134.913 177.373 140.589C177.778 148.321 178.448 168.334 178.448 168.334C178.448 168.334 180.967 170.834 184.522 168.334C184.522 168.334 189.391 140.628 190.357 132.974C191.195 126.305 192.625 108.193 192.625 108.193L195.6 133.322C195.6 133.322 194.724 138.334 194.531 141.872C194.338 145.409 197.449 163.36 197.449 163.36C198.319 163.905 199.317 164.212 200.343 164.252C201.369 164.291 202.387 164.062 203.297 163.585C203.297 163.585 205.616 136.208 206.17 133.012C206.724 129.817 204.386 94.4436 204.386 94.4436L179.228 94.4565Z" fill="#EBEBEB"/>
<path d="M184.393 57.3118C183.249 57.5129 182.19 58.0487 181.35 58.8514C180.509 59.6541 179.926 60.6878 179.672 61.822C179.375 63.1633 179.226 64.5331 179.228 65.907V94.4502C182.996 98.5544 196.135 100.468 204.347 94.4502C204.347 94.4502 204.186 69.2381 203.574 65.0951C202.499 57.8981 199.066 55.3337 195.6 55.5979L187.298 56.7899L184.393 57.3118Z" fill="#F7444E"/>
<path d="M183.955 43.6846C183.955 43.6846 185.192 49.4834 185.688 50.4563C186.019 51.0444 186.563 51.4828 187.208 51.6805L187.124 47.5891L183.955 43.6846Z" fill="#263238"/>
<path d="M185.507 35.36C185.075 35.3107 184.636 35.3605 184.226 35.5057C183.815 35.6508 183.443 35.8874 183.137 36.1976C182.12 37.2349 182.693 40.4952 183.955 43.6845L186.287 43.9551L185.507 35.36Z" fill="#263238"/>
<path d="M186.982 43.9551C186.519 44.2386 185.855 43.3107 185.276 42.7373C184.696 42.1639 182.822 41.3069 181.881 43.285C180.941 45.263 182.712 47.9627 184.187 48.4395C186.763 49.2449 187.124 47.6019 187.124 47.6019L187.317 56.8092C187.882 58.044 188.743 59.1198 189.824 59.9406C190.905 60.7613 192.173 61.3014 193.513 61.5127C198.022 62.1248 197.107 58.3942 195.62 56.5643V53.768C196.757 53.9482 197.91 54.0065 199.059 53.9419C200.933 53.652 202.112 52.1701 202.685 50.1405C203.6 46.8738 203.973 44.2386 203.168 37.8212C202.318 30.7917 194.151 30.7337 189.726 33.4978C185.301 36.2619 186.982 43.9551 186.982 43.9551Z" fill="#FFA8A7"/>
<path d="M186.983 44.7412C186.751 44.7412 185.855 43.2657 185.276 42.7373C184.471 42.0028 185.508 35.3599 185.508 35.3599C185.297 34.7852 185.258 34.1615 185.397 33.5652C185.535 32.9689 185.844 32.426 186.287 32.0031C187.388 30.7853 189.237 30.65 192.386 30.1603C194.035 29.8961 196.541 29.4387 198.183 29.1294C200.154 28.7621 201.784 28.3756 203.175 29.5869C203.721 30.0585 204.107 30.6881 204.28 31.3886C204.453 32.0891 204.404 32.8261 204.141 33.4979C204 33.8051 203.811 34.0879 203.581 34.3355C203.205 34.7822 202.715 35.1185 202.164 35.3084C202.164 35.3084 201.307 36.0751 198.299 36.4359C195.539 36.6435 192.766 36.5917 190.016 36.2813C189.153 36.1653 188.966 37.0029 188.503 39.2967C188.116 41.3134 187.775 44.7283 186.983 44.7412Z" fill="#263238"/>
<path d="M185.514 35.8756L182.693 34.3872C182.782 34.1966 182.909 34.0261 183.066 33.8862C183.223 33.7463 183.407 33.6399 183.606 33.5735C183.806 33.5072 184.017 33.4823 184.226 33.5003C184.436 33.5184 184.64 33.579 184.825 33.6785C185.197 33.8883 185.476 34.2323 185.604 34.6405C185.732 35.0487 185.7 35.4904 185.514 35.8756Z" fill="#263238"/>
<path d="M195.613 53.7552C195.613 53.7552 191.426 52.9111 189.958 52.1315C189.098 51.6819 188.393 50.9837 187.936 50.1277C188.158 50.9849 188.55 51.7889 189.088 52.4923C190.158 53.8583 195.613 54.8698 195.613 54.8698V53.7552Z" fill="#F28F8F"/>
<path d="M194.609 42.9113C194.619 43.0279 194.605 43.1454 194.568 43.2562C194.53 43.3671 194.47 43.4689 194.391 43.5552C194.312 43.6415 194.215 43.7104 194.108 43.7576C194.001 43.8047 193.885 43.8291 193.768 43.8291C193.651 43.8291 193.535 43.8047 193.428 43.7576C193.321 43.7104 193.225 43.6415 193.146 43.5552C193.067 43.4689 193.006 43.3671 192.969 43.2562C192.931 43.1454 192.917 43.0279 192.927 42.9113C192.925 42.7991 192.944 42.6875 192.985 42.5829C193.026 42.4783 193.087 42.3828 193.165 42.302C193.243 42.2211 193.336 42.1565 193.439 42.1118C193.542 42.0671 193.653 42.0432 193.765 42.0415C193.992 42.0466 194.207 42.1407 194.365 42.3034C194.523 42.4662 194.611 42.6845 194.609 42.9113Z" fill="#263238"/>
<path d="M193.714 39.7414L191.923 40.7336C191.793 40.4876 191.764 40.2006 191.842 39.9335C191.92 39.6664 192.099 39.4403 192.342 39.3033C192.46 39.2382 192.59 39.1979 192.724 39.1849C192.858 39.1718 192.994 39.1862 193.122 39.2272C193.251 39.2682 193.369 39.3349 193.471 39.4233C193.573 39.5117 193.656 39.62 193.714 39.7414Z" fill="#263238"/>
<path d="M195.233 48.7102L197.165 49.4254C197.125 49.5539 197.06 49.673 196.973 49.7755C196.886 49.8781 196.779 49.9619 196.659 50.0221C196.538 50.0823 196.407 50.1175 196.273 50.1257C196.138 50.1339 196.004 50.1148 195.877 50.0697C195.613 49.9736 195.396 49.7769 195.276 49.5224C195.155 49.2678 195.14 48.976 195.233 48.7102Z" fill="#F28F8F"/>
<path d="M202.093 40.4374L200.45 39.1487C200.527 39.0384 200.626 38.9449 200.741 38.8741C200.856 38.8032 200.983 38.7564 201.117 38.7365C201.25 38.7166 201.386 38.724 201.516 38.7583C201.646 38.7927 201.768 38.8531 201.874 38.9361C202.099 39.1087 202.248 39.362 202.288 39.6423C202.329 39.9226 202.259 40.2078 202.093 40.4374Z" fill="#263238"/>
<path d="M201.585 42.6729C201.577 42.8367 201.522 42.9947 201.425 43.1273C201.329 43.2598 201.195 43.3611 201.042 43.4186C200.888 43.4762 200.721 43.4873 200.561 43.4508C200.401 43.4142 200.256 43.3315 200.142 43.213C200.029 43.0945 199.953 42.9453 199.924 42.784C199.894 42.6226 199.913 42.4562 199.977 42.3054C200.042 42.1546 200.149 42.026 200.286 41.9355C200.423 41.8451 200.583 41.7968 200.747 41.7966C200.86 41.7991 200.971 41.8238 201.074 41.8692C201.177 41.9146 201.27 41.9799 201.347 42.0612C201.425 42.1426 201.486 42.2385 201.527 42.3435C201.568 42.4484 201.587 42.5604 201.585 42.6729Z" fill="#263238"/>
<path d="M197.307 41.874L197.584 46.9255L200.218 46.0234L197.307 41.874Z" fill="#F28F8F"/>
<path d="M184.252 173.978V173.211C184.767 173.437 185.959 177.992 188.116 179.938C189.817 181.484 192.129 183.276 192.715 184.996C193.301 186.716 189.495 187.786 187.91 187.502C186.068 187.174 182.88 185.879 182.114 184.68C181.347 183.482 180.935 181.703 180.284 180.814C179.634 179.925 178.133 178.952 177.779 177.934C177.586 177.374 177.817 176.149 178.088 175.112C178.358 174.075 178.61 173.115 178.932 173.179V173.765C179.698 174.364 180.645 174.684 181.618 174.674C182.352 174.732 184.258 174.577 184.252 173.978Z" fill="#263238"/>
<path d="M202.943 168.72C203.22 168.72 203.445 169.12 204.064 169.79C204.982 170.721 206.051 171.49 207.226 172.064C209.236 173.076 213.152 174.642 214.955 175.421C216.063 175.917 216.005 177.258 214.865 177.999C213.725 178.74 210.962 179.287 207.645 178.566C205.835 178.16 203.484 176.491 201.996 176.581C200.508 176.671 197.726 176.652 196.624 175.892C195.523 175.131 195.98 173.521 196.277 172.129C196.618 170.615 197.101 168.263 197.603 168.392V168.875C198.247 169.848 201.539 170.247 202.956 169.519L202.943 168.72Z" fill="#263238"/>
<path d="M192.605 108.193C195.383 107.327 197.938 105.862 200.089 103.902C200.089 103.902 198.64 106.608 194.351 109.121L195.581 133.335L192.605 108.193Z" fill="#E0E0E0"/>
<path d="M170.906 102.543C171.078 104.983 171.401 107.41 171.872 109.811C173.482 116.022 175.543 117.884 178.313 118.064C182.699 118.361 182.725 116.718 180.761 113.889C179.903 112.655 179.251 111.291 178.828 109.849C179.472 110.387 180.179 110.843 180.934 111.209C181.271 111.384 181.661 111.426 182.027 111.327C182.393 111.228 182.709 110.995 182.912 110.674C183.053 110.378 182.268 110.081 181.45 109.057C180.381 107.768 179.833 106.705 178.352 105.616C177.859 105.131 177.545 104.492 177.463 103.806C177.244 102.923 177.089 88.8381 177.888 85.9257L181.656 72.3951C184.728 70.2882 187.994 59.8632 183.33 57.6467C178.951 58.1429 175.756 63.8708 170.983 81.5637C170.094 84.6758 170.41 97.7232 170.906 102.543Z" fill="#FFA8A7"/>
<path d="M184.251 57.3698C184.852 57.9029 185.331 58.558 185.657 59.2914C185.984 60.0248 186.15 60.8195 186.145 61.6223C186.267 64.5732 184.857 68.8257 184.052 71.4868C183.247 74.1478 181.475 78.9608 181.475 78.9608C181.475 78.9608 174.268 78.1361 172.626 73.9029C172.626 73.9029 176.007 62.9496 179.253 59.4187C179.873 58.7158 180.646 58.1653 181.513 57.8099C182.38 57.4546 183.317 57.304 184.251 57.3698Z" fill="#37474F"/>
<path d="M213.763 80.6424L213.19 80.1528C213.105 80.0961 213.007 80.0607 212.905 80.0495C212.803 80.0383 212.7 80.0516 212.604 80.0883L206.447 81.7635C206.137 81.8656 205.852 82.0336 205.613 82.256C205.374 82.4785 205.186 82.7501 205.062 83.0522L200.624 95.8483C200.572 95.9518 200.552 96.0684 200.567 96.1833C200.582 96.2981 200.631 96.4058 200.708 96.4926L201.294 97.0016V96.5764H201.339L207.503 94.9011C207.813 94.7991 208.097 94.6311 208.337 94.4087C208.576 94.1862 208.764 93.9146 208.888 93.6125C209.757 91.0932 212.45 83.3035 213.325 80.81C213.349 80.7368 213.364 80.6611 213.371 80.5845L213.763 80.6424Z" fill="#455A64"/>
<path d="M201.172 96.3574L205.603 83.5548C205.728 83.2532 205.916 82.982 206.155 82.7596C206.394 82.5373 206.678 82.369 206.988 82.2662L213.151 80.591C213.725 80.4363 214.027 80.7649 213.834 81.319C212.965 83.8383 210.272 91.6281 209.403 94.1216C209.277 94.4226 209.088 94.6932 208.85 94.9154C208.611 95.1376 208.327 95.3063 208.018 95.4102L201.854 97.0855C201.281 97.2401 200.978 96.8857 201.172 96.3574Z" fill="#263238"/>
<path d="M212.031 86.4737C211.599 87.7623 210.047 88.645 207.522 89.2507C204.997 89.8563 203.567 92.556 203.98 93.3807C204.392 94.2055 208.488 94.9657 210.144 94.7338C211.799 94.5018 213.448 92.1179 213.944 91.3834C214.44 90.6488 215.026 85.5008 214.498 84.7984C214.286 84.5824 214.028 84.4165 213.744 84.3128C213.46 84.2091 213.156 84.1703 212.855 84.1992L212.031 86.4737Z" fill="#FFA8A7"/>
<path d="M164.768 67.8916L148.93 58.8325C148.93 58.8325 141.201 69.4315 146.47 72.4276C151.738 75.4236 156.929 78.4648 162.153 81.4867C168.079 79.1607 164.768 67.8916 164.768 67.8916Z" fill="#F7444E"/>
<path opacity="0.2" d="M164.768 67.8916L148.93 58.8325C148.93 58.8325 141.201 69.4315 146.47 72.4276C151.738 75.4236 156.929 78.4648 162.153 81.4867C168.079 79.1607 164.768 67.8916 164.768 67.8916Z" fill="black"/>
<path d="M162.153 69.3991L151.699 63.3555V64.0449L162.153 70.153V69.3991Z" fill="#263238"/>
<path d="M164.768 67.8914C163.75 71.2225 160.684 80.6359 162.153 81.4864C163.621 82.3369 168.169 79.4117 168.078 77.6205C167.814 72.6657 164.768 67.8914 164.768 67.8914Z" fill="#F7444E"/>
<path d="M141.42 0H143.462C146.502 0 149.418 1.20832 151.569 3.35914C153.719 5.50996 154.926 8.4271 154.926 11.4688V35.8368H129.955V11.4688C129.955 8.4271 131.163 5.50996 133.313 3.35914C135.463 1.20832 138.379 0 141.42 0Z" fill="#263238"/>
<path d="M164.922 55.7204C166.417 54.3287 165.805 52.705 163.731 48.2528C161.657 43.8006 156.723 33.5044 155.487 31.2944C153.329 27.4285 150.798 27.2352 146.991 27.2481C145.458 27.2481 149.342 31.6423 151.094 35.9012C152.672 39.7671 158.823 52.3635 158.823 52.3635L164.922 55.7204Z" fill="#B16668"/>
<path d="M140.595 155.519C140.048 155.029 139.494 154.546 138.992 154.088C137.433 152.671 136.248 150.261 135.565 148.618C135.178 147.68 134.979 146.675 134.979 145.661V142.439H129.388V147.645V147.787H129.421C129.691 148.953 132.267 152.059 133.73 154.082C134.709 155.441 136.576 157.168 138.805 157.464C140.885 157.754 141.967 157.084 140.595 155.519Z" fill="#B16668"/>
<path d="M156.82 146.943C156.976 146.851 157.112 146.728 157.219 146.582C157.657 145.983 157.309 145.654 156.994 145.177C156.607 144.509 156.284 143.805 156.028 143.077C155.77 142.432 155.429 141.298 155.429 141.298C155.429 141.298 155.429 140.454 155.429 140.119V136.898H149.812V142.252C150.102 143.495 151.236 144.707 151.983 145.699C152.556 146.466 154.044 146.859 154.939 147.052C155.335 147.152 155.745 147.178 156.15 147.129C156.384 147.114 156.612 147.05 156.82 146.943Z" fill="#B16668"/>
<path d="M130.483 60.5463C126.129 70.0564 130.638 103.561 130.638 103.561C130.509 105.101 128.744 108.142 128.062 114.933C127.282 122.961 129.279 143.109 129.279 143.109C130.135 143.606 131.099 143.887 132.088 143.926C133.077 143.965 134.061 143.762 134.953 143.334C134.953 143.334 140.338 112.994 141.336 105.004C142.212 98.039 143.913 82.73 143.913 82.73L147.262 104.998C146.562 107.239 146.055 109.537 145.748 111.866C145.291 116.563 149.838 138.418 149.838 138.418C149.838 138.418 151.77 139.127 155.455 138.586C155.455 138.586 157.058 109.592 157.483 103.928C158.198 94.4308 157.116 64.7794 155.371 59.1545L130.483 60.5463Z" fill="#37474F"/>
<path d="M143.9 82.7108L145.31 73.8772C145.31 73.8772 151.294 72.6401 154.005 70.0886C154.005 70.0886 151.158 73.6259 146.92 74.7857L145.336 81.5897L146.753 101.757L143.9 82.7108Z" fill="#263238"/>
<path d="M134.992 146.794V145.982C135.533 146.214 136.789 151.002 139.024 153.038C140.802 154.655 143.223 156.53 143.835 158.334C144.447 160.138 140.467 161.246 138.805 160.956C136.873 160.615 133.536 159.255 132.699 157.999C131.862 156.742 131.469 154.88 130.767 153.959C130.065 153.038 128.519 152.026 128.145 150.944C127.946 150.357 128.184 149.069 128.467 147.986C128.751 146.904 129.015 145.892 129.356 145.989V146.633C130.156 147.262 131.147 147.598 132.164 147.587C133.002 147.587 134.998 147.419 134.992 146.794Z" fill="#263238"/>
<path d="M155.429 141.298C155.719 141.298 156.034 141.749 156.678 142.445C157.642 143.418 158.761 144.224 159.989 144.829C162.095 145.886 166.191 147.51 168.046 148.347C169.206 148.869 169.154 150.28 167.956 151.06C166.758 151.839 163.866 152.432 160.395 151.659C158.501 151.234 156.041 149.488 154.482 149.578C152.923 149.668 150.012 149.655 148.859 148.856C147.706 148.057 148.17 146.369 148.492 144.92C148.846 143.328 149.291 140.854 149.819 140.957V141.505C150.463 142.529 153.986 142.948 155.474 142.194L155.429 141.298Z" fill="#263238"/>
<path d="M138.161 27.5057C132.577 27.8923 132.19 30.5856 130.793 33.5365C129.73 35.7787 130.078 38.4591 130.889 40.8044L134.419 51.9833C134.419 51.9833 132.609 56.3904 130.483 60.5462C140.241 65.9971 152.427 63.1235 155.358 59.1545C155.487 58.3105 154.714 51.7191 154.263 47.4151C155.983 43.0982 156.44 40.3663 155.712 37.5119C154.366 32.2221 149.143 27.0676 146.83 27.2544L138.161 27.5057Z" fill="#F7444E"/>
<path d="M129.35 5.15454L131.037 7.87355C130.864 7.99281 130.669 8.0759 130.463 8.11782C130.258 8.15975 130.046 8.15965 129.84 8.11752C129.634 8.0754 129.439 7.99212 129.266 7.87269C129.093 7.75327 128.947 7.60015 128.834 7.42253C128.613 7.05049 128.543 6.60769 128.639 6.1856C128.735 5.76352 128.99 5.39441 129.35 5.15454Z" fill="#263238"/>
<path d="M150.83 5.05151C152.118 5.83114 153.78 9.14936 153.619 16.108C153.477 22.0035 151.571 23.4338 150.643 23.8849C149.716 24.3359 147.835 24.0459 146.031 23.7496V27.2997C146.031 27.2997 148.518 30.1863 148.363 31.8099C148.208 33.4336 144.775 33.8138 142.444 32.2287C140.937 31.1442 139.644 29.7897 138.631 28.234V19.6646C138.631 19.6646 137.414 21.2883 135.411 19.9674C133.407 18.6466 133.349 15.3799 134.502 14.2072C135.655 13.0346 138.135 13.4083 138.599 15.0577C138.599 15.0577 141.465 15.1673 145.284 13.0668C146.774 12.2617 148.053 11.1162 149.016 9.72339C149.98 8.33059 150.601 6.72988 150.83 5.05151Z" fill="#B16668"/>
<path d="M146.374 14.6261C146.382 14.7253 146.37 14.8251 146.338 14.9196C146.307 15.0142 146.257 15.1015 146.192 15.1765C146.127 15.2515 146.047 15.3127 145.957 15.3565C145.868 15.4003 145.771 15.4258 145.671 15.4315C145.476 15.4264 145.291 15.3479 145.151 15.2118C145.012 15.0757 144.929 14.8919 144.919 14.6973C144.909 14.5027 144.973 14.3116 145.099 14.1622C145.224 14.0128 145.401 13.9161 145.594 13.8916C145.694 13.8881 145.793 13.9044 145.886 13.9396C145.979 13.9747 146.064 14.028 146.137 14.0963C146.209 14.1646 146.268 14.2466 146.308 14.3375C146.349 14.4284 146.371 14.5265 146.374 14.6261Z" fill="#263238"/>
<path d="M147.23 19.6257L148.957 20.1734C148.929 20.2916 148.878 20.4029 148.805 20.5004C148.733 20.5979 148.642 20.6794 148.536 20.7398C148.431 20.8003 148.315 20.8384 148.194 20.8518C148.073 20.8652 147.951 20.8536 147.835 20.8177C147.597 20.7396 147.4 20.5703 147.286 20.3468C147.173 20.1234 147.152 19.8641 147.23 19.6257Z" fill="#9A4A4D"/>
<path d="M152.454 12.3516L150.952 11.3078C151.016 11.2074 151.099 11.1209 151.196 11.0535C151.294 10.9862 151.404 10.9393 151.52 10.9158C151.637 10.8923 151.757 10.8927 151.873 10.9168C151.989 10.941 152.099 10.9885 152.196 11.0565C152.398 11.1974 152.537 11.4108 152.585 11.6522C152.634 11.8936 152.586 12.1442 152.454 12.3516Z" fill="#263238"/>
<path d="M152.106 14.0912C152.114 14.1904 152.102 14.2902 152.071 14.3847C152.039 14.4792 151.99 14.5666 151.924 14.6416C151.859 14.7166 151.779 14.7778 151.69 14.8216C151.6 14.8654 151.503 14.8909 151.403 14.8966C151.209 14.8915 151.023 14.813 150.883 14.6769C150.744 14.5408 150.661 14.357 150.651 14.1624C150.642 13.9678 150.706 13.7767 150.831 13.6273C150.956 13.4779 151.133 13.3812 151.326 13.3567C151.426 13.3532 151.525 13.3695 151.618 13.4047C151.711 13.4398 151.797 13.4931 151.869 13.5614C151.942 13.6297 152 13.7116 152.041 13.8026C152.081 13.8935 152.103 13.9916 152.106 14.0912Z" fill="#263238"/>
<path d="M148.486 13.666L148.602 18.1311L150.952 17.403L148.486 13.666Z" fill="#9A4A4D"/>
<path d="M145.999 23.7495C144.106 23.4982 140.203 22.3771 139.597 20.8372C139.847 21.615 140.331 22.2968 140.982 22.7894C142.148 23.7881 146.019 24.9157 146.019 24.9157L145.999 23.7495Z" fill="#9A4A4D"/>
<path opacity="0.1" d="M140.653 61.6031C138 60.9588 135.301 58.0658 136.518 55.2308C136.863 54.4322 137.461 53.7689 138.219 53.343C138.496 53.1838 138.817 53.1162 139.135 53.1497C139.453 53.1833 139.752 53.3163 139.99 53.5299C138.702 52.6922 136.518 48.6137 136.222 47.1254L134.715 42.119C134.574 40.9704 134.675 39.8049 135.011 38.6977L131.089 34.1875L130.367 34.6901C129.723 36.623 130.206 38.8781 130.889 40.8433L134.419 52.0222C134.419 52.0222 132.609 56.3906 130.483 60.5465C133.658 62.2538 137.161 63.2608 140.758 63.4998C144.354 63.7387 147.96 63.2041 151.332 61.9317C147.784 62.497 144.16 62.3856 140.653 61.6031Z" fill="black"/>
<path d="M121.595 54.2384C125.82 36.9643 128.847 30.8562 132.19 28.8395C133.435 28.121 134.849 27.7474 136.287 27.757C136.743 28.3319 137.019 29.0292 137.079 29.7608C137.48 33.2414 136.625 36.7509 134.67 39.6575C134.67 39.6575 128.506 52.6727 127.521 57.2989C126.658 61.3452 125.685 66.4353 125.737 69.9275C125.75 70.5568 125.992 71.1595 126.419 71.622C127.553 72.8462 127.553 73.832 128.287 75.1851C128.854 76.2418 129.479 76.6348 129.305 76.8732C129.071 77.1274 128.749 77.2829 128.404 77.308C128.059 77.3331 127.718 77.226 127.45 77.0085C126.923 76.6303 126.452 76.1791 126.052 75.6683C126.243 76.9622 126.616 78.2225 127.16 79.4118C128.448 82.2661 128.12 83.7223 124.268 82.7043C121.853 82.0599 120.339 80.0561 119.978 74.2508C119.799 72.1076 119.777 69.9541 119.914 67.8077C120.429 62.3246 120.796 57.4857 121.595 54.2384Z" fill="#B16668"/>
<path d="M145.619 52.8531C146.779 53.1881 147.906 53.0399 149.484 53.6391C150.669 54.143 151.925 54.4624 153.207 54.5863C154.598 54.7023 155.963 53.2332 159.525 51.2101C162.907 49.2771 167.074 53.259 164.91 55.7203C164.147 56.454 163.254 57.0376 162.275 57.4406C160.659 58.0849 159.055 58.4264 154.914 59.6828C154.216 59.9211 153.54 60.2164 152.891 60.5655C152.087 60.9292 151.259 61.235 150.411 61.4805C148.477 62.1161 146.412 62.2425 144.415 61.8477C143.179 61.6455 142.039 61.0541 141.162 60.1596C140.422 59.322 139.752 57.7305 140.003 56.6094C140.069 56.2701 140.248 55.9633 140.512 55.7396C141.156 55.2306 142.154 55.5528 142.882 55.6687C143.73 55.8441 144.593 55.9347 145.458 55.9393C146.85 55.8814 147.822 55.6494 147.629 55.4432C147.436 55.237 146.624 55.3337 145.523 54.7989C144.421 54.2641 143.739 53.2074 144.054 52.6405C144.37 52.0735 144.46 52.518 145.619 52.8531Z" fill="#B16668"/>
<path d="M158.463 51.7836C158.463 51.7836 160.356 51.4679 161.586 53.6199C162.817 55.7719 163.461 67.1505 163.461 67.1505L162.172 66.3967C162.172 66.3967 161.734 57.2925 160.64 54.6959C160.357 54.0361 159.872 53.4832 159.255 53.1172C158.638 52.7512 157.921 52.591 157.207 52.6599C157.341 52.4322 157.522 52.2362 157.739 52.085C157.956 51.9338 158.203 51.831 158.463 51.7836Z" fill="#263238"/>
<path d="M81.6998 216.88C81.6998 212.355 80.3586 207.931 77.8458 204.169C75.333 200.406 71.7615 197.473 67.5829 195.742C63.4042 194.01 58.8062 193.557 54.3702 194.44C49.9342 195.322 45.8594 197.502 42.6612 200.701C39.463 203.901 37.2851 207.978 36.4027 212.417C35.5203 216.855 35.9732 221.455 37.704 225.636C39.4349 229.817 42.3659 233.39 46.1266 235.904C49.8873 238.419 54.3086 239.76 58.8316 239.76C64.8945 239.753 70.707 237.341 74.9941 233.051C79.2813 228.762 81.6928 222.946 81.6998 216.88ZM41.7558 216.88C41.7558 213.501 42.7572 210.198 44.6336 207.388C46.5099 204.579 49.1767 202.389 52.2969 201.096C55.4171 199.803 58.8505 199.465 62.1629 200.124C65.4753 200.783 68.5179 202.41 70.906 204.8C73.2941 207.189 74.9204 210.233 75.5792 213.547C76.2381 216.861 75.9 220.296 74.6075 223.418C73.3151 226.54 71.1265 229.208 68.3184 231.086C65.5103 232.963 62.2088 233.965 58.8316 233.965C54.3044 233.96 49.9641 232.158 46.7629 228.955C43.5616 225.752 41.7609 221.41 41.7558 216.88Z" fill="#012C3D"/>
<path d="M100.123 279.034C100.113 270.353 96.6623 262.03 90.5272 255.892C84.3922 249.754 76.0741 246.301 67.3977 246.291H50.2662C41.5899 246.301 33.2717 249.754 27.1367 255.892C21.0017 262.03 17.5508 270.353 17.5411 279.034C17.5411 279.802 17.8463 280.54 18.3894 281.083C18.9326 281.626 19.6693 281.932 20.4374 281.932C21.2055 281.932 21.9422 281.626 22.4853 281.083C23.0285 280.54 23.3336 279.802 23.3336 279.034C23.3416 271.89 26.1817 265.04 31.2308 259.988C36.2799 254.936 43.1256 252.095 50.2662 252.086H67.3977C74.5383 252.095 81.3841 254.936 86.4332 259.988C91.4823 265.04 94.3224 271.89 94.3304 279.034C94.3304 279.802 94.6355 280.54 95.1787 281.083C95.7218 281.626 96.4585 281.932 97.2266 281.932C97.9947 281.932 98.7314 281.626 99.2746 281.083C99.8177 280.54 100.123 279.802 100.123 279.034Z" fill="#012C3D"/>
<path d="M0.174927 234.935C0.174868 235.315 0.249741 235.692 0.395271 236.044C0.5408 236.395 0.754134 236.715 1.02309 236.984C1.29204 237.253 1.61135 237.466 1.96276 237.612C2.31418 237.758 2.69082 237.833 3.07117 237.833H12.4048V247.171C12.4048 247.94 12.71 248.677 13.2531 249.22C13.7963 249.764 14.5329 250.069 15.3011 250.069C16.0692 250.069 16.8059 249.764 17.349 249.22C17.8922 248.677 18.1973 247.94 18.1973 247.171V237.833H27.531C28.2991 237.833 29.0358 237.527 29.5789 236.984C30.1221 236.44 30.4272 235.703 30.4272 234.935C30.4272 234.166 30.1221 233.429 29.5789 232.886C29.0358 232.342 28.2991 232.037 27.531 232.037H18.1973V222.699C18.1973 221.93 17.8922 221.193 17.349 220.65C16.8059 220.106 16.0692 219.801 15.3011 219.801C14.5329 219.801 13.7963 220.106 13.2531 220.65C12.71 221.193 12.4048 221.93 12.4048 222.699V232.037H3.07117C2.69082 232.037 2.31417 232.112 1.96276 232.257C1.61134 232.403 1.29204 232.617 1.02308 232.886C0.75413 233.155 0.540795 233.474 0.395267 233.826C0.249738 234.177 0.174866 234.554 0.174927 234.935Z" fill="#012C3D"/>
</svg>
